<svg width="279" height="224" viewBox="0 0 279 224" fill="none" xmlns="http://www.w3.org/2000/svg">
<path d="M273.954 208.997C271.164 208.997 271.164 212.1 268.366 212.1C265.568 212.1 265.575 208.997 262.784 208.997C259.993 208.997 259.95 212.1 257.195 212.1C254.439 212.1 254.397 208.997 251.606 208.997C248.815 208.997 248.815 212.1 246.017 212.1C243.219 212.1 243.226 208.997 240.428 208.997C237.63 208.997 237.637 212.1 234.846 212.1C232.056 212.1 232.048 208.997 229.258 208.997C226.467 208.997 226.467 212.1 223.669 212.1C220.871 212.1 220.878 208.997 218.087 208.997C215.296 208.997 215.289 212.1 212.498 212.1C209.707 212.1 209.707 208.997 206.916 208.997C204.125 208.997 204.083 212.1 201.327 212.1C198.572 212.1 198.536 208.997 195.745 208.997C192.955 208.997 192.955 212.1 190.157 212.1C187.359 212.1 187.366 208.997 184.575 208.997C181.784 208.997 181.784 212.1 178.993 212.1C176.202 212.1 176.195 208.997 173.404 208.997C170.613 208.997 170.613 212.1 167.822 212.1C165.031 212.1 165.031 208.997 162.241 208.997C159.45 208.997 159.45 212.1 156.652 212.1C153.854 212.1 153.861 208.997 151.07 208.997C148.279 208.997 148.279 212.1 145.481 212.1C142.683 212.1 142.69 208.997 139.899 208.997C137.108 208.997 137.066 212.1 134.31 212.1C131.555 212.1 131.519 208.997 128.728 208.997C125.938 208.997 125.931 212.1 123.14 212.1C120.349 212.1 120.349 208.997 117.558 208.997C114.767 208.997 114.76 212.1 111.969 212.1C109.178 212.1 109.178 208.997 106.387 208.997C103.596 208.997 103.603 212.1 100.77 212.1C97.9365 212.1 97.979 208.997 95.1881 208.997C92.3972 208.997 92.3972 212.1 89.6063 212.1C86.8154 212.1 86.8083 208.997 84.0174 208.997C81.2265 208.997 81.2265 212.1 78.4356 212.1C75.6447 212.1 75.6376 208.997 72.8467 208.997C70.0558 208.997 70.0558 212.1 67.2649 212.1C64.474 212.1 64.474 208.997 61.676 208.997C58.8781 208.997 58.8851 212.1 56.0942 212.1C53.3033 212.1 53.3034 208.997 50.5125 208.997C47.7216 208.997 47.7216 212.1 44.9236 212.1C42.1256 212.1 42.1327 208.997 39.3418 208.997C36.5509 208.997 36.5509 212.1 33.76 212.1C30.9691 212.1 30.9691 208.997 28.1711 208.997C25.3731 208.997 25.3802 212.1 22.5893 212.1C19.7984 212.1 19.7984 208.997 17.0075 208.997C14.2166 208.997 14.2166 212.1 11.4186 212.1C8.62062 212.1 8.68437 208.997 5.85097 208.997C3.01757 208.997 3.06007 212.1 0.269171 212.1H0V222.442H278.764V211.993C276.731 211.462 276.441 208.997 273.954 208.997Z" fill="#34A853"/>
<path d="M61.3856 220.465V191.841" stroke="#263238" stroke-width="1.65533" stroke-miterlimit="10"/>
<path d="M48.1749 193.166L61.3857 202.856" stroke="#263238" stroke-width="1.65533" stroke-miterlimit="10"/>
<path d="M61.3856 212.539L76.3601 192.726" stroke="#263238" stroke-width="1.65533" stroke-miterlimit="10"/>
<path d="M101.698 194.015V184.892C101.699 179.848 100.706 174.853 98.7764 170.192C96.8467 165.532 94.0178 161.297 90.4513 157.73C86.8848 154.163 82.6506 151.333 77.9904 149.402C73.3302 147.472 68.3354 146.478 63.2911 146.478C58.2469 146.478 53.2521 147.472 48.5919 149.402C43.9317 151.333 39.6975 154.163 36.131 157.73C32.5645 161.297 29.7356 165.532 27.8059 170.192C25.8762 174.853 24.8835 179.848 24.8844 184.892V194.015H101.698Z" fill="#34A853"/>
<path opacity="0.5" d="M101.698 194.015V184.892C101.699 179.848 100.706 174.853 98.7764 170.192C96.8467 165.532 94.0178 161.297 90.4513 157.73C86.8848 154.163 82.6506 151.333 77.9904 149.402C73.3302 147.472 68.3354 146.478 63.2911 146.478C58.2469 146.478 53.2521 147.472 48.5919 149.402C43.9317 151.333 39.6975 154.163 36.131 157.73C32.5645 161.297 29.7356 165.532 27.8059 170.192C25.8762 174.853 24.8835 179.848 24.8844 184.892V194.015H101.698Z" fill="white"/>
<path opacity="0.1" d="M24.8843 194.016H101.698V184.892C101.698 179.339 100.49 173.852 98.1561 168.812L97.9436 169.011C97.5358 168.127 96.8852 167.378 96.0676 166.851C95.25 166.323 94.2993 166.039 93.3263 166.032C92.3534 166.024 91.3984 166.294 90.5729 166.809C89.7474 167.324 89.0854 168.063 88.6642 168.94C88.1748 168.576 87.5811 168.38 86.9712 168.38C86.3736 168.37 85.7889 168.555 85.3066 168.908C84.8243 169.261 84.471 169.762 84.3007 170.335C84.0382 169.959 83.6883 169.653 83.2812 169.442C82.874 169.231 82.4218 169.122 81.9632 169.124C81.3233 169.122 80.7017 169.337 80.1994 169.733C80.0365 169.177 79.707 168.684 79.2551 168.321C78.8033 167.958 78.2509 167.742 77.6726 167.702C77.0943 167.663 76.5178 167.802 76.0209 168.101C75.524 168.399 75.1306 168.843 74.8939 169.372C74.4155 169.047 73.8501 168.874 73.2717 168.876C72.5732 168.87 71.8972 169.122 71.3734 169.585C70.983 168.706 70.3533 167.955 69.5563 167.418C68.7594 166.881 67.8273 166.579 66.8666 166.546C65.906 166.514 64.9556 166.752 64.1241 167.234C63.2927 167.716 62.6137 168.423 62.1648 169.273C61.8995 168.914 61.5534 168.624 61.1546 168.424C60.7558 168.225 60.3156 168.123 59.8697 168.125C59.2691 168.114 58.6814 168.3 58.1974 168.656C57.7134 169.012 57.3602 169.518 57.1922 170.095C56.9855 169.579 56.6268 169.138 56.1638 168.83C55.7008 168.523 55.1553 168.364 54.5996 168.373C54.1962 168.376 53.798 168.464 53.4315 168.632C53.065 168.801 52.7388 169.046 52.4746 169.351C52.2454 168.837 51.8686 168.403 51.3922 168.105C50.9157 167.806 50.3611 167.656 49.799 167.673C49.2369 167.691 48.6927 167.875 48.2357 168.203C47.7787 168.531 47.4296 168.987 47.2328 169.514C46.7088 168.992 46.0794 168.588 45.3867 168.33C44.6941 168.071 43.9541 167.963 43.2164 168.013C42.4787 168.064 41.7603 168.271 41.1092 168.621C40.4581 168.972 39.8893 169.457 39.4409 170.045C39.3133 169.422 38.9711 168.864 38.4739 168.468C37.9768 168.072 37.3564 167.863 36.7209 167.877C36.1692 167.869 35.6279 168.027 35.167 168.33C34.706 168.633 34.3466 169.068 34.1354 169.577C33.8637 169.306 33.5396 169.092 33.1828 168.95C32.826 168.807 32.444 168.739 32.0599 168.749C31.7883 168.751 31.5185 168.794 31.2595 168.876C30.8591 168.015 30.2135 167.29 29.4036 166.794C26.4226 172.36 24.8674 178.578 24.8772 184.892L24.8843 194.016Z" fill="#263238"/>
<path opacity="0.1" d="M101.698 184.892C101.7 182.354 101.451 179.823 100.954 177.334C100.6 177.283 100.242 177.257 99.8845 177.256C97.3344 177.256 95.1598 178.46 94.2177 180.167C93.5919 179.796 92.8768 179.603 92.1493 179.608C91.4716 179.562 90.7962 179.725 90.2138 180.075C89.6313 180.424 89.1697 180.943 88.8909 181.563C88.535 181.167 88.0971 180.854 87.6078 180.645C87.1185 180.435 86.5894 180.335 86.0575 180.351C85.3057 180.349 84.5688 180.56 83.9324 180.961C83.6279 179.771 82.2607 178.836 80.6244 178.836C79.9873 178.801 79.3532 178.945 78.7937 179.252C78.2342 179.558 77.7716 180.015 77.4581 180.571C76.8547 180.241 76.1768 180.07 75.4889 180.075C74.6616 180.063 73.8513 180.31 73.1726 180.784C72.3084 178.991 70.0842 177.716 67.4562 177.716C64.9912 177.716 62.8661 178.85 61.9098 180.472C61.5496 180.096 61.1144 179.799 60.6325 179.601C60.1506 179.404 59.6325 179.309 59.1119 179.324C58.4314 179.279 57.7533 179.443 57.1692 179.795C56.5852 180.147 56.1234 180.67 55.8464 181.294C55.5309 180.742 55.0685 180.289 54.5107 179.985C53.9528 179.681 53.3215 179.538 52.6871 179.572C51.7214 179.555 50.7851 179.905 50.0662 180.55C49.7465 180.012 49.2858 179.572 48.7339 179.277C48.182 178.983 47.56 178.845 46.9353 178.878C46.2698 178.836 45.607 178.994 45.0315 179.331C44.4561 179.668 43.9943 180.168 43.7052 180.769C42.4348 179.759 40.8516 179.223 39.2285 179.253C38.2946 179.227 37.3653 179.394 36.4995 179.745C35.6338 180.096 34.8504 180.624 34.1992 181.294C33.93 180.068 32.5558 179.126 30.8841 179.126C30.2515 179.093 29.6221 179.235 29.0648 179.536C28.5076 179.837 28.044 180.286 27.7249 180.833C27.0265 180.273 26.1546 179.975 25.2598 179.99C25.0519 181.618 24.9478 183.258 24.9481 184.899V194.023H101.698V184.892Z" fill="#263238"/>
<path d="M216.968 220.465V191.841" stroke="#263238" stroke-width="1.65533" stroke-miterlimit="10"/>
<path d="M203.757 193.166L216.968 202.856" stroke="#263238" stroke-width="1.65533" stroke-miterlimit="10"/>
<path d="M216.968 212.539L231.942 192.726" stroke="#263238" stroke-width="1.65533" stroke-miterlimit="10"/>
<path d="M257.315 194.015V184.892C257.316 179.848 256.324 174.853 254.394 170.192C252.464 165.532 249.635 161.297 246.069 157.73C242.502 154.163 238.268 151.333 233.608 149.402C228.948 147.472 223.953 146.478 218.909 146.478C213.864 146.478 208.87 147.472 204.209 149.402C199.549 151.333 195.315 154.163 191.748 157.73C188.182 161.297 185.353 165.532 183.423 170.192C181.494 174.853 180.501 179.848 180.502 184.892V194.015H257.315Z" fill="#34A853"/>
<path opacity="0.5" d="M257.315 194.015V184.892C257.316 179.848 256.324 174.853 254.394 170.192C252.464 165.532 249.635 161.297 246.069 157.73C242.502 154.163 238.268 151.333 233.608 149.402C228.948 147.472 223.953 146.478 218.909 146.478C213.864 146.478 208.87 147.472 204.209 149.402C199.549 151.333 195.315 154.163 191.748 157.73C188.182 161.297 185.353 165.532 183.423 170.192C181.494 174.853 180.501 179.848 180.502 184.892V194.015H257.315Z" fill="white"/>
<path opacity="0.1" d="M180.466 194.016H257.315V184.892C257.316 179.339 256.107 173.852 253.774 168.812L253.561 169.011C253.153 168.127 252.503 167.378 251.685 166.851C250.868 166.323 249.917 166.039 248.944 166.032C247.971 166.024 247.016 166.294 246.19 166.809C245.365 167.324 244.703 168.063 244.282 168.94C243.792 168.576 243.199 168.38 242.589 168.38C241.991 168.37 241.406 168.555 240.924 168.908C240.442 169.261 240.088 169.762 239.918 170.335C239.656 169.959 239.306 169.653 238.899 169.442C238.492 169.231 238.039 169.122 237.581 169.124C236.941 169.122 236.319 169.337 235.817 169.733C235.654 169.177 235.324 168.684 234.873 168.321C234.421 167.958 233.868 167.742 233.29 167.702C232.712 167.663 232.135 167.802 231.638 168.101C231.142 168.399 230.748 168.843 230.511 169.372C230.033 169.047 229.468 168.874 228.889 168.876C228.191 168.87 227.515 169.122 226.991 169.585C226.6 168.706 225.971 167.955 225.174 167.418C224.377 166.881 223.445 166.579 222.484 166.546C221.524 166.514 220.573 166.752 219.742 167.234C218.91 167.716 218.231 168.423 217.782 169.273C217.517 168.914 217.171 168.624 216.772 168.424C216.373 168.225 215.933 168.123 215.487 168.125C214.887 168.114 214.299 168.3 213.815 168.656C213.331 169.012 212.978 169.518 212.81 170.095C212.603 169.579 212.244 169.138 211.781 168.83C211.318 168.523 210.773 168.364 210.217 168.373C209.814 168.376 209.416 168.464 209.049 168.632C208.683 168.801 208.356 169.046 208.092 169.351C207.863 168.837 207.486 168.403 207.01 168.105C206.533 167.806 205.979 167.656 205.417 167.673C204.854 167.691 204.31 167.875 203.853 168.203C203.396 168.531 203.047 168.987 202.85 169.514C202.326 168.992 201.697 168.588 201.004 168.33C200.312 168.071 199.572 167.963 198.834 168.013C198.096 168.064 197.378 168.271 196.727 168.621C196.076 168.972 195.507 169.457 195.058 170.045C194.931 169.422 194.589 168.864 194.091 168.468C193.594 168.072 192.974 167.863 192.338 167.877C191.787 167.869 191.245 168.027 190.784 168.33C190.324 168.633 189.964 169.068 189.753 169.577C189.488 169.311 189.172 169.099 188.824 168.956C188.476 168.812 188.103 168.739 187.727 168.742C187.455 168.744 187.186 168.787 186.927 168.869C186.526 168.006 185.877 167.281 185.064 166.787C182.087 172.354 180.534 178.572 180.544 184.885L180.466 194.016Z" fill="#263238"/>
<path opacity="0.1" d="M257.315 184.892C257.317 182.354 257.068 179.823 256.572 177.334C256.217 177.283 255.86 177.257 255.502 177.256C252.952 177.256 250.777 178.46 249.835 180.167C249.209 179.796 248.494 179.603 247.767 179.608C247.089 179.562 246.414 179.725 245.831 180.075C245.249 180.424 244.787 180.943 244.508 181.563C244.152 181.167 243.715 180.854 243.225 180.645C242.736 180.435 242.207 180.335 241.675 180.351C240.923 180.349 240.186 180.56 239.55 180.961C239.245 179.771 237.878 178.836 236.242 178.836C235.605 178.801 234.971 178.945 234.411 179.252C233.852 179.558 233.389 180.015 233.076 180.571C232.472 180.241 231.794 180.07 231.106 180.075C230.279 180.063 229.469 180.31 228.79 180.784C227.926 178.991 225.702 177.716 223.074 177.716C220.609 177.716 218.484 178.85 217.527 180.472C217.167 180.096 216.732 179.799 216.25 179.601C215.768 179.404 215.25 179.309 214.729 179.324C214.049 179.279 213.371 179.443 212.787 179.795C212.203 180.147 211.741 180.67 211.464 181.294C211.148 180.742 210.686 180.289 210.128 179.985C209.57 179.681 208.939 179.538 208.305 179.572C207.339 179.555 206.403 179.905 205.684 180.55C205.368 179.998 204.906 179.545 204.348 179.241C203.79 178.937 203.159 178.795 202.524 178.828C201.859 178.787 201.196 178.944 200.621 179.281C200.045 179.618 199.583 180.119 199.294 180.72C198.024 179.709 196.441 179.173 194.818 179.204C193.884 179.177 192.954 179.344 192.089 179.696C191.223 180.047 190.44 180.574 189.788 181.244C189.519 180.018 188.145 179.076 186.473 179.076C185.841 179.043 185.211 179.185 184.654 179.486C184.097 179.788 183.633 180.236 183.314 180.784C182.616 180.224 181.744 179.926 180.849 179.941C180.641 181.569 180.537 183.208 180.537 184.849V193.973H257.315V184.892Z" fill="#263238"/>
<path d="M198.034 24.1815C195.2 22.6514 193.953 23.9264 192.933 22.6514C191.913 21.3764 195.767 18.0542 188.088 14.7391C188.088 14.7391 187.578 7.59897 177.123 7.34396C166.668 7.08896 169.48 14.4841 166.647 16.2692C163.813 18.0542 163.105 15.2492 160.271 17.0342C157.438 18.8192 158.741 22.3964 156.446 22.9064C154.151 23.4164 151.091 20.6114 148.286 22.3964C145.481 24.1814 145.453 25.7115 144.199 25.7115C142.945 25.7115 140.374 24.6915 138.844 25.7115C137.314 26.7315 135.529 28.0065 135.529 28.0065H200.059C200.059 28.0065 200.839 25.7115 198.034 24.1815Z" fill="white"/>
<path d="M238.898 89.0947C236.957 88.0392 236.065 88.9247 235.356 88.0392C234.648 87.1538 237.29 84.8658 232.006 82.5779C232.006 82.5779 231.652 77.6194 224.427 77.4707C217.201 77.3219 219.142 82.4291 217.209 83.6333C215.275 84.8375 214.736 82.9249 212.803 84.1646C210.869 85.4042 211.747 87.8622 210.16 88.2163C208.574 88.5705 206.456 86.6296 204.494 87.8622C202.532 89.0947 202.553 90.1572 201.66 90.1572C200.768 90.1572 199.018 89.4489 197.956 90.1572C196.893 90.8656 195.668 91.7439 195.668 91.7439H240.315C240.315 91.7439 240.86 90.1572 238.898 89.0947Z" fill="white"/>
<path d="M212.257 79.1069C211.039 78.4482 210.486 79.0007 210.047 78.4482C209.608 77.8957 211.265 76.4506 207.922 75.0127C207.922 75.0127 207.695 71.9101 203.155 71.8039C198.614 71.6976 199.833 74.8993 198.614 75.6785C197.396 76.4577 197.07 75.2323 195.852 76.0115C194.633 76.7906 195.186 78.3348 194.187 78.5544C193.188 78.774 191.864 77.5627 190.645 78.3348C189.427 79.1069 189.427 79.7515 188.874 79.7515C188.322 79.7515 187.21 79.3124 186.544 79.7515C185.878 80.1907 185.127 80.7503 185.127 80.7503H213.143C213.219 80.4156 213.172 80.0645 213.009 79.7622C212.846 79.4599 212.579 79.227 212.257 79.1069Z" fill="white"/>
<path d="M112.727 103.793C108.37 101.42 106.394 103.396 104.807 101.42C103.221 99.4437 109.164 94.294 97.2848 89.1443C97.2848 89.1443 96.4915 78.0515 80.2844 77.6619C64.0774 77.2723 68.4054 88.7476 64.049 91.5172C59.6927 94.2869 58.5026 89.9376 54.1321 92.7073C49.7616 95.4769 51.7591 101.023 48.1961 101.817C44.6331 102.61 39.8801 98.2749 35.5238 101.023C31.1674 103.772 31.1674 106.173 29.1486 106.173C27.1298 106.173 23.2126 104.586 20.8326 106.173C18.4525 107.76 15.6829 109.715 15.6829 109.715H115.9C115.9 109.715 117.062 106.173 112.727 103.793Z" fill="white"/>
<path d="M119.895 163.061C119.895 163.061 120.2 171.865 122.325 177.433C124.45 183.001 133.559 198.79 135.784 202.735C138.008 206.681 138.617 207.793 138.617 207.793C136.85 209.969 135.195 212.234 133.659 214.579C132.143 217.108 129.409 218.425 130.018 219.438C130.627 220.451 131.335 220.345 134.572 219.537C137.81 218.73 138.823 216.902 141.458 214.777C144.093 212.652 146.211 212.553 146.31 210.931C146.409 209.309 143.073 206.277 142.364 204.35C141.656 202.424 137.611 193.931 135.281 184.715C132.95 175.499 130.726 172.574 130.627 171.462C130.528 170.35 131.534 163.358 131.534 163.358L119.895 163.061Z" fill="white"/>
<path d="M146.267 210.662C146.041 208.997 143.009 206.178 142.336 204.35C141.663 202.523 137.583 193.931 135.252 184.715C132.922 175.499 130.698 172.574 130.599 171.462C130.499 170.35 131.505 163.358 131.505 163.358L119.895 163.061C119.895 163.061 120.002 166.22 120.547 169.953C121.199 170.052 121.964 170.137 122.878 170.194C124.853 170.347 126.84 170.128 128.736 169.549C128.736 169.549 128.084 172.149 130.251 178.871C132.419 185.593 139.361 201.864 140.877 204.683C141.677 206.22 144.163 208.707 146.267 210.662Z" fill="#F48221"/>
<path opacity="0.5" d="M146.267 210.662C146.041 208.997 143.009 206.178 142.336 204.35C141.663 202.523 137.583 193.931 135.252 184.715C132.922 175.499 130.698 172.574 130.599 171.462C130.499 170.35 131.505 163.358 131.505 163.358L119.895 163.061C119.895 163.061 120.002 166.22 120.547 169.953C121.199 170.052 121.964 170.137 122.878 170.194C124.853 170.347 126.84 170.128 128.736 169.549C128.736 169.549 128.084 172.149 130.251 178.871C132.419 185.593 139.361 201.864 140.877 204.683C141.677 206.22 144.163 208.707 146.267 210.662Z" fill="white"/>
<path d="M119.895 163.061C119.895 163.061 120.2 171.865 122.325 177.433C124.45 183.001 133.559 198.79 135.784 202.735C138.008 206.681 138.617 207.793 138.617 207.793C136.85 209.969 135.195 212.234 133.659 214.579C132.143 217.108 129.409 218.425 130.018 219.438C130.627 220.451 131.335 220.345 134.572 219.537C137.81 218.73 138.823 216.902 141.458 214.777C144.093 212.652 146.211 212.553 146.31 210.931C146.409 209.309 143.073 206.277 142.364 204.35C141.656 202.424 137.611 193.931 135.281 184.715C132.95 175.499 130.726 172.574 130.627 171.462C130.528 170.35 131.534 163.358 131.534 163.358L119.895 163.061Z" stroke="#263238" stroke-width="0.75" stroke-linecap="round" stroke-linejoin="round"/>
<path d="M146.281 210.931C146.338 210.095 145.467 208.877 144.518 207.63L139.807 211.746C139.807 211.746 139.297 210.329 138.695 209.011C138.592 208.726 138.404 208.479 138.157 208.303C136.54 210.303 135.029 212.386 133.63 214.544C132.114 217.072 129.38 218.39 129.989 219.403C130.599 220.416 131.307 220.309 134.544 219.502C137.781 218.694 138.794 216.867 141.429 214.742C144.064 212.617 146.182 212.553 146.281 210.931Z" fill="#263238" stroke="#263238" stroke-width="0.75" stroke-linecap="round" stroke-linejoin="round"/>
<path d="M143.044 162.147C144.13 165.463 145.698 168.602 147.698 171.462C151.24 176.725 165.208 191.501 166.526 193.42C167.844 195.34 170.174 203.444 171.081 206.277C171.987 209.11 174.828 207.998 175.841 204.35C176.854 200.702 171.187 192.613 170.068 190.991C168.949 189.369 162.984 182.087 159.343 173.176C155.702 164.265 153.57 159.214 153.57 159.214C153.57 159.214 144.461 161.035 143.044 162.147Z" fill="white"/>
<path d="M170.068 190.991C168.956 189.376 162.984 182.087 159.343 173.176C155.702 164.265 153.57 159.214 153.57 159.214C153.57 159.214 144.461 161.035 143.044 162.147C143.691 164.179 144.546 166.14 145.594 167.998C147.993 167.798 150.345 167.222 152.564 166.291C152.564 166.291 157.771 178.007 161.461 183.213C163.416 185.976 167.645 189.723 171.18 192.627C170.691 191.89 170.287 191.31 170.068 190.991Z" fill="#F48221"/>
<path opacity="0.5" d="M170.068 190.991C168.956 189.376 162.984 182.087 159.343 173.176C155.702 164.265 153.57 159.214 153.57 159.214C153.57 159.214 144.461 161.035 143.044 162.147C143.691 164.179 144.546 166.14 145.594 167.998C147.993 167.798 150.345 167.222 152.564 166.291C152.564 166.291 157.771 178.007 161.461 183.213C163.416 185.976 167.645 189.723 171.18 192.627C170.691 191.89 170.287 191.31 170.068 190.991Z" fill="white"/>
<path d="M143.044 162.147C144.13 165.463 145.698 168.602 147.698 171.462C151.24 176.725 165.208 191.501 166.526 193.42C167.844 195.34 170.174 203.444 171.081 206.277C171.987 209.11 174.828 207.998 175.841 204.35C176.854 200.702 171.187 192.613 170.068 190.991C168.949 189.369 162.984 182.087 159.343 173.176C155.702 164.265 153.57 159.214 153.57 159.214C153.57 159.214 144.461 161.035 143.044 162.147Z" stroke="#263238" stroke-width="0.75" stroke-linecap="round" stroke-linejoin="round"/>
<path d="M171.081 206.277C171.995 209.11 174.828 207.998 175.841 204.35C176.854 200.702 171.187 192.613 170.068 190.991L169.77 190.573C170.266 191.898 170.776 193.222 170.776 193.222C170.47 192.902 170.079 192.675 169.649 192.567C169.219 192.459 168.768 192.475 168.347 192.613C166.732 193.017 167.539 195.446 167.539 195.446V195.51C168.814 198.712 170.372 204.074 171.081 206.277Z" fill="#263238" stroke="#263238" stroke-width="0.75" stroke-linecap="round" stroke-linejoin="round"/>
<path d="M102.895 141.541C102.895 141.541 104.467 137.957 110.318 136.908C116.169 135.86 123.55 141.867 126.554 142.936C129.557 144.006 131.229 124.668 128.233 106.506C125.236 88.3438 121.029 87.005 114.724 95.4061C108.42 103.807 103.504 136.441 102.895 141.541Z" fill="#263238" stroke="#263238" stroke-width="0.75" stroke-linecap="round" stroke-linejoin="round"/>
<path d="M184.355 89.2717C175.756 72.668 169.374 70.4438 164.217 66.6045C159.06 62.7653 158.748 62.659 154.399 59.521C150.05 56.383 141.429 52.7279 138.312 51.9204C137.44 51.6708 136.519 51.6444 135.634 51.8437C134.749 52.043 133.929 52.4615 133.248 53.0609C133.248 53.0609 128.792 54.4776 123.331 60.0169C117.87 65.5562 122.516 70.2384 122.516 70.2384C122.516 70.2384 121.1 76.4152 128.289 83.4987C135.479 90.5822 139.623 111.238 163.707 112.449C187.791 113.66 192.948 105.868 184.355 89.2717ZM124.641 65.4853C122.941 67.8583 122.927 68.9562 123.104 69.4237C123.17 69.5327 123.243 69.6369 123.324 69.7354C123.218 69.6584 123.141 69.5489 123.104 69.4237C122.743 68.7838 122.514 68.0781 122.43 67.3481C122.346 66.6182 122.409 65.8788 122.615 65.1736C123.324 62.2411 128.891 59.4077 128.891 59.4077C128.891 59.4077 127.156 61.9436 124.627 65.4853H124.641Z" fill="#263238" stroke="#263238" stroke-width="0.75" stroke-linecap="round" stroke-linejoin="round"/>
<path d="M133.354 78.8448C132.089 78.8612 130.829 78.6918 129.614 78.3419C127.283 77.7327 125.364 78.3419 122.828 81.2744C120.292 84.207 117.26 92.1051 117.26 97.9773C117.26 103.85 120.908 110.728 120.908 110.728C120.908 110.728 116.856 116.501 115.241 127.431C113.626 138.36 116.049 164.775 116.049 164.775C116.049 164.775 126.78 167.311 137.809 165.483C144.642 164.32 151.304 162.314 157.643 159.512C157.643 159.512 158.047 147.675 152.982 132.084C150.364 123.77 147.323 115.595 143.873 107.59C143.873 107.59 146.508 97.1627 146.607 90.0792C146.706 82.9957 144.178 80.6653 142.258 79.7586C140.338 78.8519 133.354 78.8448 133.354 78.8448Z" fill="#263238"/>
<path opacity="0.3" d="M133.354 78.8448C132.089 78.8612 130.829 78.6918 129.614 78.3419C127.283 77.7327 125.364 78.3419 122.828 81.2744C120.292 84.207 117.26 92.1051 117.26 97.9773C117.26 103.85 120.908 110.728 120.908 110.728C120.908 110.728 116.856 116.501 115.241 127.431C113.626 138.36 116.049 164.775 116.049 164.775C116.049 164.775 126.78 167.311 137.809 165.483C144.642 164.32 151.304 162.314 157.643 159.512C157.643 159.512 158.047 147.675 152.982 132.084C150.364 123.77 147.323 115.595 143.873 107.59C143.873 107.59 146.508 97.1627 146.607 90.0792C146.706 82.9957 144.178 80.6653 142.258 79.7586C140.338 78.8519 133.354 78.8448 133.354 78.8448Z" fill="white" stroke="#263238" stroke-width="0.75" stroke-linecap="round" stroke-linejoin="round"/>
<path d="M133.354 78.8448C132.089 78.8612 130.829 78.6918 129.614 78.3419C127.283 77.7327 125.364 78.3419 122.828 81.2744C120.292 84.207 117.26 92.1051 117.26 97.9773C117.26 103.85 120.908 110.728 120.908 110.728C120.908 110.728 116.856 116.501 115.241 127.431C113.626 138.36 116.049 164.775 116.049 164.775C116.049 164.775 126.78 167.311 137.809 165.483C144.642 164.32 151.304 162.314 157.643 159.512C157.643 159.512 158.047 147.675 152.982 132.084C150.364 123.77 147.323 115.595 143.873 107.59C143.873 107.59 146.508 97.1627 146.607 90.0792C146.706 82.9957 144.178 80.6653 142.258 79.7586C140.338 78.8519 133.354 78.8448 133.354 78.8448Z" stroke="#263238" stroke-width="0.75" stroke-linecap="round" stroke-linejoin="round"/>
<path d="M130.599 101.009C130.599 101.009 132.214 105.968 136.57 108.199" stroke="#263238" stroke-width="0.75" stroke-linecap="round" stroke-linejoin="round"/>
<path d="M132.518 71.7614C132.282 73.9416 131.773 76.0835 131.002 78.1365C129.89 80.6653 129.182 80.0632 128.169 84.6179C127.156 89.1726 130.599 95.2432 134.445 92.7144C138.291 90.1855 140.721 85.0217 140.515 83.095C140.31 81.1682 139.403 80.7716 139.403 78.1365C139.433 76.3931 139.671 74.6596 140.112 72.9726C140.112 72.9726 134.849 73.3764 132.518 71.7614Z" fill="white"/>
<path d="M132.518 71.7614C132.283 73.9029 131.788 76.0079 131.045 78.0303C132.306 79.4045 134.877 80.9416 139.46 79.1707C139.421 78.8274 139.402 78.482 139.403 78.1365C139.432 76.3931 139.67 74.6594 140.112 72.9726C140.112 72.9726 134.849 73.3764 132.518 71.7614Z" fill="#F48221"/>
<path opacity="0.5" d="M132.518 71.7614C132.283 73.9029 131.788 76.0079 131.045 78.0303C132.306 79.4045 134.877 80.9416 139.46 79.1707C139.421 78.8274 139.402 78.482 139.403 78.1365C139.432 76.3931 139.67 74.6594 140.112 72.9726C140.112 72.9726 134.849 73.3764 132.518 71.7614Z" fill="white"/>
<path d="M132.518 71.7614C132.282 73.9416 131.773 76.0835 131.002 78.1365C129.89 80.6653 129.182 80.0632 128.169 84.6179C127.156 89.1726 130.599 95.2432 134.445 92.7144C138.291 90.1855 140.721 85.0217 140.515 83.095C140.31 81.1682 139.403 80.7716 139.403 78.1365C139.433 76.3931 139.671 74.6596 140.112 72.9726C140.112 72.9726 134.849 73.3764 132.518 71.7614Z" stroke="#263238" stroke-width="0.75" stroke-linecap="round" stroke-linejoin="round"/>
<path d="M135.557 46.0483C135.557 46.0483 129.784 62.7512 129.38 67.1075C129.285 68.2118 129.417 69.3239 129.769 70.3752C130.12 71.4264 130.683 72.3944 131.423 73.2195C132.163 74.0446 133.065 74.7093 134.072 75.1724C135.079 75.6355 136.17 75.8874 137.278 75.9123C142.237 76.0115 146.182 70.2455 146.182 70.2455C146.182 70.2455 148.208 71.8676 150.836 70.0472C153.464 68.2267 159.563 52.1259 159.563 52.1259C159.563 52.1259 156.425 46.7566 148.428 45.2407C140.43 43.7249 135.557 46.0483 135.557 46.0483Z" fill="white"/>
<path d="M148.406 45.2407C147.004 44.9739 145.583 44.8105 144.156 44.752L141.755 53.2522C141.755 53.2522 145.219 63.2753 145.006 66.0945C144.794 68.9138 142.4 74.3327 136.11 74.3327C134.621 74.3445 133.144 74.0778 131.753 73.5464C133.219 75.0399 135.214 75.8951 137.307 75.9265C142.265 76.0256 146.211 70.2597 146.211 70.2597C146.211 70.2597 148.236 71.8818 150.864 70.0613C153.492 68.2409 159.563 52.1259 159.563 52.1259C159.563 52.1259 156.404 46.7566 148.406 45.2407Z" fill="#F48221"/>
<path opacity="0.5" d="M148.406 45.2407C147.004 44.9739 145.583 44.8105 144.156 44.752L141.755 53.2522C141.755 53.2522 145.219 63.2753 145.006 66.0945C144.794 68.9138 142.4 74.3327 136.11 74.3327C134.621 74.3445 133.144 74.0778 131.753 73.5464C133.219 75.0399 135.214 75.8951 137.307 75.9265C142.265 76.0256 146.211 70.2597 146.211 70.2597C146.211 70.2597 148.236 71.8818 150.864 70.0613C153.492 68.2409 159.563 52.1259 159.563 52.1259C159.563 52.1259 156.404 46.7566 148.406 45.2407Z" fill="white"/>
<path d="M135.557 46.0483C135.557 46.0483 129.784 62.7512 129.38 67.1075C129.285 68.2118 129.417 69.3239 129.769 70.3752C130.12 71.4264 130.683 72.3944 131.423 73.2195C132.163 74.0446 133.065 74.7093 134.072 75.1724C135.079 75.6355 136.17 75.8874 137.278 75.9123C142.237 76.0115 146.182 70.2455 146.182 70.2455C146.182 70.2455 148.208 71.8676 150.836 70.0472C153.464 68.2267 159.563 52.1259 159.563 52.1259C159.563 52.1259 156.425 46.7566 148.428 45.2407C140.43 43.7249 135.557 46.0483 135.557 46.0483Z" stroke="#263238" stroke-width="0.75" stroke-linecap="round" stroke-linejoin="round"/>
<path d="M138.39 58.5011C138.088 59.5305 137.397 60.4019 136.464 60.9307C134.948 61.7383 133.63 61.6391 134.14 62.4466C134.607 63.0094 135.247 63.4007 135.961 63.5587" stroke="#263238" stroke-width="0.75" stroke-linecap="round" stroke-linejoin="round"/>
<path d="M134.948 65.28C135.774 65.8858 136.758 66.2378 137.781 66.2929C138.998 66.3876 140.211 66.068 141.224 65.3862C141.224 65.3862 138.086 69.0271 136.464 69.0271C134.842 69.0271 134.948 65.28 134.948 65.28Z" fill="#263238"/>
<path d="M140.211 59.4148C140.211 59.4148 142.031 57.4881 143.448 59.8185" stroke="#263238" stroke-width="0.75" stroke-linecap="round" stroke-linejoin="round"/>
<path d="M134.445 58.501C134.621 58.3121 134.842 58.1713 135.088 58.092C135.334 58.0127 135.596 57.9975 135.849 58.0479C136.103 58.0982 136.339 58.2125 136.536 58.3798C136.733 58.5472 136.883 58.762 136.974 59.004" stroke="#263238" stroke-width="0.75" stroke-linecap="round" stroke-linejoin="round"/>
<path d="M134.062 56.376C134.304 55.8632 134.693 55.4345 135.18 55.1454C135.668 54.8562 136.231 54.7198 136.797 54.7539" stroke="#263238" stroke-width="0.75" stroke-linecap="round" stroke-linejoin="round"/>
<path d="M140.919 54.8601C140.919 54.8601 142.031 54.4493 143.044 56.4752" stroke="#263238" stroke-width="0.75" stroke-linecap="round" stroke-linejoin="round"/>
<path d="M141.727 53.238C141.727 53.238 144.56 59.3086 147.195 65.6837C149.83 72.0589 160.555 79.957 162.396 80.467C164.238 80.977 170.089 71.1522 170.089 71.1522C170.089 71.1522 159.818 63.8987 156.05 60.7465C152.281 57.5944 148.109 54.251 141.727 53.238Z" fill="#263238" stroke="#263238" stroke-width="0.75" stroke-linecap="round" stroke-linejoin="round"/>
<path d="M135.479 51.4175L123.947 44.0294C123.947 44.0294 138.114 38.1572 141.656 34.92C141.656 34.92 164.529 49.7954 172.93 50.8083C172.93 50.8083 160.08 55.7668 154.208 57.1835L135.479 51.4175Z" fill="#F48221" stroke="#263238" stroke-width="0.75" stroke-linecap="round" stroke-linejoin="round"/>
<path d="M159.563 52.1259C159.563 52.1259 156.425 46.7566 148.428 45.2407C140.43 43.7249 135.578 46.0483 135.578 46.0483C135.578 46.0483 134.502 49.165 133.248 53.0609C136.783 52.2532 140.477 52.4995 143.873 53.7693C148.832 55.4552 153.315 58.6073 156.05 60.7749C157.941 56.3689 159.563 52.1259 159.563 52.1259Z" fill="#F48221" stroke="#263238" stroke-width="0.75" stroke-linecap="round" stroke-linejoin="round"/>
<path d="M123.919 44.0294C123.919 44.0294 123.104 49.8946 118.854 49.2925C114.604 48.6904 116.12 43.0165 120.979 38.4618C125.838 33.9071 123.614 28.5449 120.37 27.6311" stroke="#263238" stroke-width="0.75" stroke-linecap="round" stroke-linejoin="round"/>
<path d="M121.185 27.8295C121.185 27.8295 119.867 26.6182 116.729 26.2145C113.591 25.8107 108.533 24.7978 108.732 25.2015C108.93 25.6053 108.831 26.6182 109.036 27.3266C109.242 28.0349 109.646 28.9487 110.758 28.9487C111.87 28.9487 119.562 28.7433 120.476 28.7433C121.39 28.7433 121.185 27.8295 121.185 27.8295Z" fill="#263238" stroke="#263238" stroke-width="0.75" stroke-linecap="round" stroke-linejoin="round"/>
<path d="M185.772 53.7409C185.772 53.7409 186.785 63.4595 188.811 68.0142C190.837 72.5689 193.628 82.3158 193.16 87.848C192.827 91.8643 191.439 92.4027 190.327 92.4027C189.215 92.4027 185.644 89.9589 183.342 85.5175C179.043 77.2369 180.311 71.1451 181.621 66.2858C182.931 61.4265 185.772 53.7409 185.772 53.7409Z" fill="#263238"/>
<path opacity="0.3" d="M185.772 53.7409C185.772 53.7409 186.785 63.4595 188.811 68.0142C190.837 72.5689 193.514 81.9828 193.16 87.848C192.919 91.8714 191.439 92.4027 190.327 92.4027C189.215 92.4027 187.189 94.0177 183.342 85.5175C179.496 77.0173 180.311 71.1451 181.621 66.2858C182.932 61.4265 185.772 53.7409 185.772 53.7409Z" fill="white" stroke="#263238" stroke-width="0.75" stroke-linecap="round" stroke-linejoin="round"/>
<path d="M185.772 53.7409C185.772 53.7409 186.785 63.4595 188.811 68.0142C190.837 72.5689 193.628 82.3158 193.16 87.848C192.827 91.8643 191.439 92.4027 190.327 92.4027C189.215 92.4027 185.644 89.9589 183.342 85.5175C179.043 77.2369 180.311 71.1451 181.621 66.2858C182.931 61.4265 185.772 53.7409 185.772 53.7409Z" stroke="#263238" stroke-width="0.75" stroke-linecap="round" stroke-linejoin="round"/>
<path d="M185.857 54.9592C185.857 54.9592 192.338 46.2536 193.55 43.824C194.761 41.3943 196.688 38.8655 198.104 38.6601C199.521 38.4547 203.169 41.4935 203.367 43.4202C203.566 45.3469 201.349 47.6703 199.521 48.4778C198.335 48.9611 197.029 49.0675 195.781 48.7824C195.781 48.7824 190.518 58.2956 187.578 62.7511C184.639 67.2066 182.924 69.2325 182.315 69.7354C181.706 70.2384 180.19 67.8158 181.104 64.4724C182.018 61.129 185.857 54.9592 185.857 54.9592Z" fill="white" stroke="#263238" stroke-width="0.75" stroke-linecap="round" stroke-linejoin="round"/>
<path d="M201.519 39.7085C201.519 39.7085 199.394 42.8961 199.62 43.4982C199.847 44.1003 200.569 44.9149 201.001 44.3624C201.434 43.8099 203.127 41.4298 203.07 40.4806C203.013 39.5314 202.291 39.2764 201.519 39.7085Z" fill="white" stroke="#263238" stroke-width="0.75" stroke-linecap="round" stroke-linejoin="round"/>
<path d="M203.013 41.3023C203.013 41.3023 201.122 44.1357 201.349 44.6386C201.575 45.1416 202.177 45.8499 202.56 45.3966C202.942 44.9432 204.451 42.8182 204.373 41.9823C204.295 41.1465 203.693 40.9269 203.013 41.3023Z" fill="white" stroke="#263238" stroke-width="0.75" stroke-linecap="round" stroke-linejoin="round"/>
<path d="M199.939 37.6472C199.939 37.6472 197.403 41.3944 197.708 42.1027C198.012 42.8111 198.82 43.7249 199.33 43.1157C199.84 42.5065 201.859 39.6731 201.759 38.561C201.66 37.4489 200.839 37.1443 199.939 37.6472Z" fill="white" stroke="#263238" stroke-width="0.75" stroke-linecap="round" stroke-linejoin="round"/>
<path d="M198.005 36.0322C198.005 36.0322 195.476 39.7723 195.781 40.4877C196.085 41.2031 196.893 42.1027 197.396 41.4935C197.899 40.8844 199.932 38.058 199.826 36.9388C199.719 35.8197 198.919 35.5221 198.005 36.0322Z" fill="white" stroke="#263238" stroke-width="0.75" stroke-linecap="round" stroke-linejoin="round"/>
<path d="M193.45 45.0424C193.45 45.0424 196.185 38.058 196.794 38.058C197.403 38.058 200.739 39.9777 200.938 40.8914C201.136 41.8052 200.938 41.9044 200.336 42.0036C199.734 42.1027 197.807 40.9906 197.807 40.9906C197.807 40.9906 198.713 43.1157 197.396 44.6315C196.078 46.1474 194.966 46.2537 194.966 46.2537" fill="white"/>
<path d="M193.45 45.0424C193.45 45.0424 196.185 38.058 196.794 38.058C197.403 38.058 200.739 39.9777 200.938 40.8914C201.136 41.8052 200.938 41.9044 200.336 42.0036C199.734 42.1027 197.807 40.9906 197.807 40.9906C197.807 40.9906 198.713 43.1157 197.396 44.6315C196.078 46.1474 194.966 46.2537 194.966 46.2537" stroke="#263238" stroke-width="0.75" stroke-linecap="round" stroke-linejoin="round"/>
<path d="M102.753 45.262C102.753 45.262 97.4265 35.8126 96.5269 33.22C95.6273 30.6275 94.0406 27.9074 92.6593 27.5532C91.278 27.199 87.2829 29.7279 86.8367 31.6121C86.3904 33.4963 88.31 36.0818 90.0172 37.1159C91.1297 37.7515 92.4103 38.0308 93.6864 37.9164C93.6864 37.9164 97.7098 48.0175 100.062 52.7917C102.413 57.566 103.858 59.8044 104.397 60.3853C104.935 60.9661 106.748 58.7419 106.267 55.3135C105.785 51.885 102.753 45.262 102.753 45.262Z" fill="white" stroke="#263238" stroke-width="0.75" stroke-linecap="round" stroke-linejoin="round"/>
<path d="M89.1459 28.1624C89.1459 28.1624 90.8814 31.5979 90.5626 32.1646C90.2439 32.7312 89.4434 33.4113 89.0822 32.8729C88.7209 32.3346 87.3184 29.6924 87.5238 28.7645C87.7292 27.8365 88.4305 27.6382 89.1459 28.1624Z" fill="white" stroke="#263238" stroke-width="0.75" stroke-linecap="round" stroke-linejoin="round"/>
<path d="M87.46 29.5579C87.46 29.5579 88.9829 32.5754 88.6925 33.0996C88.4021 33.6238 87.715 34.1976 87.3962 33.7017C87.0775 33.2059 85.8379 30.9037 86.022 30.0891C86.2062 29.2745 86.8296 29.0974 87.46 29.5579Z" fill="white" stroke="#263238" stroke-width="0.75" stroke-linecap="round" stroke-linejoin="round"/>
<path d="M90.9805 26.3207C90.9805 26.3207 93.0135 30.3512 92.6239 31.017C92.2343 31.6829 91.3205 32.4833 90.8884 31.8174C90.4563 31.1516 88.813 28.0844 89.0538 26.9936C89.2947 25.9027 90.1447 25.7044 90.9805 26.3207Z" fill="white" stroke="#263238" stroke-width="0.75" stroke-linecap="round" stroke-linejoin="round"/>
<path d="M93.0914 24.9535C93.0914 24.9535 95.1314 28.9911 94.7347 29.657C94.3381 30.3228 93.4314 31.1233 93.0064 30.4574C92.5813 29.7916 90.9238 26.7244 91.1647 25.6335C91.4055 24.5427 92.2697 24.3373 93.0914 24.9535Z" fill="white" stroke="#263238" stroke-width="0.75" stroke-linecap="round" stroke-linejoin="round"/>
<path d="M96.4702 34.4667C96.4702 34.4667 94.6427 27.1919 94.0406 27.1211C93.4385 27.0503 89.8825 28.5378 89.5638 29.4091C89.245 30.2803 89.4363 30.4078 90.0313 30.5849C90.6263 30.762 92.6664 29.8766 92.6664 29.8766C92.6664 29.8766 91.4976 31.867 92.6097 33.5388C93.7218 35.2105 94.8127 35.4513 94.8127 35.4513" fill="white"/>
<path d="M96.4702 34.4667C96.4702 34.4667 94.6427 27.1919 94.0406 27.1211C93.4385 27.0503 89.8825 28.5378 89.5638 29.4091C89.245 30.2803 89.4363 30.4078 90.0313 30.5849C90.6263 30.762 92.6664 29.8766 92.6664 29.8766C92.6664 29.8766 91.4976 31.867 92.6097 33.5388C93.7218 35.2105 94.8127 35.4513 94.8127 35.4513" stroke="#263238" stroke-width="0.75" stroke-linecap="round" stroke-linejoin="round"/>
<path d="M146.104 78.8448C146.104 78.8448 144.383 75.6077 142.258 76.1106C140.133 76.6135 137.802 83.7041 137.802 93.111C137.802 102.518 143.271 121.148 147.719 132.779C152.168 144.41 153.287 161.325 152.883 171.851C152.479 182.377 150.659 183.794 151.162 184.297C151.665 184.8 153.592 184.906 164.224 180.252C174.856 175.598 174.644 170.633 174.644 170.633L172.823 163.549C172.823 163.549 176.57 162.232 183.151 162.338C189.732 162.444 196 158.492 196.206 153.023C196.411 147.555 189.122 140.981 186.084 138.445C183.045 135.91 190.589 130.399 174.948 120.531C166.59 115.261 162.198 106.258 160.271 102.412C158.345 98.5653 158.656 96.3411 160.675 94.6198C162.694 92.8985 171.208 89.7605 176.769 90.0651C182.329 90.3697 190.334 92.3956 190.334 92.3956C190.334 92.3956 183.753 89.1584 183.449 76.401C183.261 68.7771 184.045 61.1602 185.779 53.7338C185.779 53.7338 183.151 56.1635 178.292 60.619C173.432 65.0745 173.737 66.1866 169.891 66.1866C166.044 66.1866 162.602 66.9941 161.39 70.1321C160.179 73.2701 158.763 75.0906 155.83 74.9914C152.897 74.8922 151.984 72.9655 149.143 75.0906C146.303 77.2156 146.104 78.8448 146.104 78.8448Z" fill="#F48221" stroke="#263238" stroke-width="0.75" stroke-linecap="round" stroke-linejoin="round"/>
<path d="M146.104 78.8449C146.104 78.8449 142.258 87.2459 143.271 100.095C144.284 112.945 150.354 127.926 158.656 137.546C166.958 147.165 172.214 162.444 172.214 162.444" stroke="#263238" stroke-width="0.75" stroke-linecap="round" stroke-linejoin="round"/>
<path d="M153.974 105.259C153.974 105.259 156.708 116.699 164.401 126.212C172.094 135.725 184.44 138.155 184.44 138.155" stroke="#263238" stroke-width="0.75" stroke-linecap="round" stroke-linejoin="round"/>
<path d="M151.849 92.1052C151.849 92.1052 150.638 95.8523 153.471 101.923C156.305 107.993 157.013 108.808 157.013 108.808" stroke="#263238" stroke-width="0.75" stroke-linecap="round" stroke-linejoin="round"/>
<path d="M160.271 94.7332C158.48 96.3336 157.005 98.2557 155.922 100.4" stroke="#263238" stroke-width="0.75" stroke-linecap="round" stroke-linejoin="round"/>
<path d="M176.748 90.0793C177.789 90.136 178.915 90.2564 180.056 90.4052C179.135 90.0253 178.323 89.4236 177.691 88.6536C177.059 87.8836 176.628 86.9693 176.436 85.9921C175.402 82.0466 178.603 71.1168 179.978 66.47C180.815 63.6098 181.319 60.6624 181.479 57.6865L178.504 60.4207C178.264 62.21 177.89 63.9788 177.385 65.7121C174.899 74.1769 172.752 82.5779 173.843 86.6792C174.147 87.8981 174.673 89.0507 175.395 90.0793C175.855 90.0581 176.308 90.0581 176.748 90.0793Z" fill="#263238"/>
<path d="M128.396 79.0503C128.396 79.0503 129.408 75.8061 127.383 74.1911C125.357 72.576 123.239 74.9986 123.239 74.9986C121.419 73.8994 119.973 72.2777 119.088 70.3447C117.367 66.9021 119.392 64.6779 115.44 59.7195C111.487 54.761 108.965 53.2451 109.978 48.5913C110.991 43.9374 115.241 40.4948 112.203 38.4689C109.164 36.4431 101.776 36.5422 96.3144 42.719C90.853 48.8959 91.4551 52.3314 89.33 54.6618C87.205 56.9923 82.544 59.9249 85.3774 64.4796C88.2108 69.0343 92.971 70.7556 97.4194 71.4639C101.868 72.1723 108.25 77.5345 109.667 83.5059C111.083 89.4772 109.263 96.4616 106.529 102.135C103.795 107.809 96.1019 115.29 93.7785 126.829C91.4551 138.368 98.7369 144.339 100.054 148.894C101.372 153.448 103.192 165.087 101.067 171.667C99.7547 175.637 96.9991 178.969 93.3464 181.003C93.3464 181.003 96.286 185.352 103.568 186.16C110.85 186.967 112.273 186.16 112.883 183.022C113.492 179.884 114.2 169.358 111.771 158.123C109.341 146.889 104.078 141.831 107.52 131.915C110.963 121.998 114.2 110.048 117.94 101.342C121.68 92.6365 128.396 79.0503 128.396 79.0503Z" fill="#F48221" stroke="#263238" stroke-width="0.75" stroke-linecap="round" stroke-linejoin="round"/>
<path d="M113.69 74.0847C113.69 74.0847 115.716 74.2901 114.604 79.454C113.492 84.6179 109.646 93.9256 109.646 93.9256" stroke="#263238" stroke-width="0.75" stroke-linecap="round" stroke-linejoin="round"/>
<path d="M99.8278 147.973C99.8278 147.973 97.7027 144.431 98.8149 135.527C99.927 126.623 104.312 115.084 107.853 104.855C111.395 94.6269 113.01 90.7876 113.01 90.7876" stroke="#263238" stroke-width="0.75" stroke-linecap="round" stroke-linejoin="round"/>
<path d="M123.713 75.9123C123.713 75.9123 123.713 77.8319 118.953 87.6497C114.193 97.4674 111.771 105.564 111.671 111.337" stroke="#263238" stroke-width="0.75" stroke-linecap="round" stroke-linejoin="round"/>
<path d="M94.2885 59.011C95.1385 58.3026 96.0169 57.5943 96.8102 56.8505C99.084 54.7255 99.9907 52.2533 100.791 50.107C101.499 48.2441 102.08 46.629 103.462 45.6232C105.119 44.3977 108.371 45.694 110.481 46.8415C110.814 45.9999 111.197 45.179 111.629 44.3836C109.121 43.0235 104.8 41.281 101.861 43.4485C99.8349 44.9361 99.0274 47.0824 98.2553 49.1649C97.5469 51.1271 96.7677 53.16 94.9473 54.8884C94.2389 55.5967 93.4243 56.2272 92.5814 56.9214C90.0809 58.9685 87.1696 61.3627 85.8733 65.2445C86.5019 66.1167 87.2372 66.9067 88.0621 67.5962C88.7279 63.5798 91.448 61.3415 94.2885 59.011Z" fill="#263238"/>
<path d="M278.764 219.474H0.0141602V224H278.764V219.474Z" fill="#263238"/>
</svg>
