<svg width="377" height="288" viewBox="0 0 377 288" fill="none" xmlns="http://www.w3.org/2000/svg">
<path d="M194.662 287.69C294.961 287.69 376.269 283.255 376.269 277.783C376.269 272.311 294.961 267.876 194.662 267.876C94.3638 267.876 13.0557 272.311 13.0557 277.783C13.0557 283.255 94.3638 287.69 194.662 287.69Z" fill="#92E3A9"/>
<path opacity="0.3" d="M194.662 287.69C294.961 287.69 376.269 283.255 376.269 277.783C376.269 272.311 294.961 267.876 194.662 267.876C94.3638 267.876 13.0557 272.311 13.0557 277.783C13.0557 283.255 94.3638 287.69 194.662 287.69Z" fill="white"/>
<path d="M301.987 128.451C301.933 128.451 302.619 125.038 302.692 124.791C303.479 122.358 306.443 118.113 309.306 118.122C309.782 118.136 310.25 118.25 310.679 118.456C311.108 118.662 311.49 118.957 311.798 119.32C312.106 119.683 312.334 120.107 312.467 120.565C312.6 121.022 312.636 121.502 312.572 121.974C312.361 123.996 310.55 125.706 308.913 126.703C306.991 127.902 301.987 128.451 301.987 128.451Z" fill="#92E3A9"/>
<path d="M296.435 105.48C299.133 106.45 300.478 111.444 300.387 114.006C300.387 114.225 299.874 117.665 299.829 117.665H299.774C299.984 118.452 300.213 119.303 300.441 120.227C300.844 121.946 301.283 123.886 301.622 126.045C302.014 128.36 302.271 130.697 302.39 133.043C302.536 135.668 302.447 138.301 302.125 140.91C302.12 140.941 302.12 140.971 302.125 141.002C302.481 140.242 303.533 138.138 303.634 137.983C305.043 135.842 309.013 132.494 311.785 133.299C312.239 133.439 312.659 133.673 313.017 133.986C313.375 134.298 313.664 134.683 313.864 135.114C314.064 135.545 314.171 136.014 314.179 136.489C314.186 136.964 314.094 137.436 313.907 137.873C313.176 139.758 310.98 140.938 309.141 141.459C307.065 142.054 302.436 141.349 302.07 141.294C301.68 143.94 301.111 146.556 300.368 149.125C299.941 150.625 299.478 152.126 298.978 153.626C299.298 152.976 299.6 152.4 299.646 152.318C301.054 150.177 305.025 146.829 307.796 147.625C308.252 147.764 308.672 147.997 309.031 148.309C309.39 148.622 309.679 149.006 309.879 149.438C310.08 149.869 310.187 150.338 310.193 150.814C310.2 151.29 310.107 151.762 309.919 152.199C309.187 154.093 306.991 155.264 305.153 155.794C303.314 156.325 299.325 155.794 298.283 155.657C298.09 156.224 297.898 156.8 297.697 157.368C296.782 160.112 295.794 162.856 294.953 165.546C294.651 166.461 294.385 167.449 294.12 168.4C294.413 167.824 294.66 167.339 294.706 167.275C296.105 165.134 300.085 161.786 302.847 162.582C303.302 162.722 303.721 162.956 304.08 163.269C304.438 163.581 304.727 163.965 304.928 164.396C305.129 164.827 305.237 165.295 305.246 165.771C305.255 166.246 305.164 166.718 304.979 167.156C304.247 169.04 302.042 170.221 300.204 170.742C298.365 171.263 294.77 170.806 293.526 170.632C293.279 171.62 293.041 172.599 292.849 173.56C292.73 174.218 292.574 174.849 292.492 175.517C292.409 176.185 292.309 176.835 292.217 177.475C292.089 178.728 291.943 180.027 291.851 181.253C291.778 182.104 291.723 182.918 291.668 183.732C291.952 182.817 292.583 180.933 292.629 180.777C293.645 178.767 295.156 177.048 297.02 175.783C297.122 175.553 297.247 175.336 297.395 175.133C297.654 174.734 297.995 174.394 298.394 174.134C298.793 173.875 299.243 173.703 299.713 173.629C300.183 173.555 300.663 173.58 301.123 173.704C301.583 173.827 302.011 174.046 302.381 174.346C304.558 176.176 304.009 181.372 303.012 183.732C302.957 183.869 302.143 185.306 301.622 186.202C302.015 185.726 302.381 185.287 302.792 184.757C303.588 183.787 304.412 182.836 305.29 181.811L306.635 180.357C307.074 179.853 307.604 179.387 308.089 178.902C309.233 177.795 310.449 176.725 311.703 175.673C310.843 174.978 307.851 172.444 306.991 170.724C306.132 169.004 305.519 166.598 306.415 164.787C306.611 164.351 306.897 163.963 307.253 163.645C307.61 163.328 308.029 163.09 308.484 162.945C308.939 162.801 309.419 162.755 309.894 162.809C310.368 162.863 310.825 163.016 311.236 163.259C313.66 164.777 313.907 169.946 313.276 172.407C313.276 172.562 312.581 174.291 312.206 175.234C312.965 174.612 313.715 173.98 314.502 173.404C316.771 171.648 319.122 169.946 321.454 168.235L323.586 166.653C323.284 166.406 319.661 163.478 318.692 161.557C317.841 159.847 317.219 157.432 318.115 155.611C318.313 155.177 318.599 154.789 318.955 154.473C319.312 154.156 319.731 153.918 320.186 153.774C320.64 153.63 321.12 153.583 321.594 153.637C322.068 153.69 322.525 153.842 322.936 154.083C325.361 155.611 325.608 160.78 324.976 163.231C324.931 163.424 323.988 165.912 323.714 166.534C325.278 165.363 326.824 164.192 328.288 162.975C330.292 161.339 332.187 159.572 333.96 157.688C333.823 157.578 330.026 154.541 329.038 152.565C328.178 150.854 327.565 148.439 328.462 146.628C328.657 146.193 328.942 145.804 329.297 145.487C329.653 145.17 330.072 144.931 330.526 144.787C330.98 144.643 331.46 144.596 331.933 144.65C332.407 144.704 332.864 144.857 333.274 145.1C335.707 146.619 335.954 151.787 335.323 154.248C335.277 154.404 334.564 156.306 334.198 157.203L334.344 157.285C336.079 155.342 337.637 153.248 339 151.028C339.76 149.82 340.428 148.622 341.05 147.433C340.281 146.939 336.814 144.688 335.725 142.969C334.637 141.249 333.813 139.035 334.5 137.132C334.647 136.684 334.887 136.272 335.203 135.922C335.519 135.572 335.904 135.292 336.335 135.099C336.765 134.906 337.231 134.805 337.702 134.802C338.174 134.8 338.641 134.895 339.074 135.083C341.662 136.327 342.468 141.441 342.111 143.975C342.111 144.112 341.745 145.493 341.48 146.5C341.745 145.96 342.038 145.411 342.285 144.89C343.199 142.932 343.977 141.084 344.617 139.401C344.983 138.486 345.285 137.571 345.532 136.812C345.029 135.897 343.071 132.375 342.879 130.408C342.687 128.441 342.998 126.026 344.489 124.654C344.829 124.321 345.236 124.062 345.682 123.896C346.129 123.73 346.605 123.66 347.081 123.69C347.556 123.72 348.02 123.85 348.442 124.071C348.864 124.293 349.235 124.6 349.53 124.974C351.25 127.271 349.612 132.174 348.13 134.269C348.002 134.443 345.669 137.013 345.642 137.013V136.958C345.386 137.736 345.111 138.568 344.782 139.465C344.178 141.121 343.465 142.996 342.568 144.954C341.613 147.1 340.535 149.189 339.339 151.211C338.007 153.477 336.476 155.62 334.765 157.615L334.701 157.688C335.414 157.239 337.445 156.078 337.619 156.005C339.979 154.998 345.12 154.422 347.005 156.59C347.307 156.958 347.528 157.385 347.655 157.844C347.781 158.303 347.81 158.783 347.739 159.254C347.669 159.725 347.5 160.175 347.244 160.577C346.989 160.978 346.652 161.322 346.255 161.585C344.599 162.756 342.111 162.5 340.29 161.942C338.232 161.292 334.801 158.154 334.481 157.907C332.697 159.897 330.781 161.765 328.745 163.497C327.556 164.521 326.34 165.509 325.086 166.479C325.717 166.122 326.285 165.802 326.367 165.765C328.718 164.759 333.859 164.183 335.744 166.351C336.047 166.718 336.27 167.146 336.397 167.605C336.524 168.064 336.553 168.545 336.483 169.016C336.412 169.487 336.243 169.938 335.986 170.339C335.73 170.741 335.391 171.084 334.994 171.346C333.347 172.517 330.859 172.261 329.038 171.703C327.218 171.145 324.171 168.51 323.385 167.805L321.948 168.912C319.643 170.678 317.374 172.425 315.133 174.209C314.356 174.84 313.615 175.49 312.864 176.13C313.432 175.81 313.898 175.545 313.981 175.517C316.332 174.502 321.473 173.935 323.357 176.094C323.662 176.46 323.886 176.887 324.014 177.347C324.142 177.806 324.172 178.287 324.101 178.759C324.03 179.231 323.86 179.682 323.603 180.083C323.345 180.485 323.006 180.827 322.607 181.088C320.951 182.259 318.472 182.003 316.652 181.454C314.831 180.905 312.078 178.509 311.163 177.676C310.422 178.362 309.672 179.039 308.986 179.744C308.519 180.228 308.071 180.658 307.614 181.18C307.156 181.701 306.699 182.168 306.296 182.662C305.5 183.632 304.668 184.638 303.909 185.608C303.378 186.275 302.884 186.925 302.39 187.574C303.149 186.943 304.686 185.745 304.823 185.644C306.991 184.29 311.986 182.945 314.182 184.793C314.536 185.112 314.82 185.503 315.014 185.938C315.208 186.374 315.308 186.846 315.308 187.323C315.308 187.8 315.208 188.271 315.014 188.707C314.82 189.143 314.536 189.533 314.182 189.852C312.727 191.252 310.239 191.407 308.354 191.115C306.269 190.785 302.5 188.37 302.033 188.023C301.21 189.102 300.423 190.163 299.691 191.179C297.157 194.682 295.181 197.692 293.827 199.824L293.69 200.034L291.934 199.183C292.025 199.046 292.117 198.918 292.208 198.772C293.626 196.649 295.694 193.649 298.328 190.163C299.161 189.065 300.066 187.904 301.009 186.714C300.028 185.648 299.112 184.523 298.264 183.348C296.242 184.135 292.044 184.171 291.504 184.171C291.421 185.525 291.348 186.843 291.293 188.087C291.11 192.414 291.129 196.018 291.174 198.534V198.836L289.244 197.921C289.244 195.423 289.345 192.029 289.601 188.032C289.683 186.65 289.802 185.178 289.939 183.677C289.4 183.54 285.036 182.415 283.389 181.098C281.898 179.908 280.325 177.969 280.38 175.947C280.375 175.47 280.47 174.998 280.661 174.561C280.851 174.123 281.131 173.731 281.484 173.41C281.836 173.089 282.253 172.845 282.706 172.696C283.158 172.547 283.638 172.495 284.112 172.544C286.957 172.91 289.336 177.502 289.811 180.018C289.811 180.164 289.958 181.848 290.013 182.854C290.077 182.232 290.122 181.637 290.187 181.024C290.315 179.771 290.479 178.518 290.653 177.173C290.754 176.533 290.863 175.883 290.964 175.224C291.065 174.566 291.239 173.889 291.376 173.212C291.723 171.657 292.144 170.092 292.611 168.528C291.513 168.409 287.625 167.952 285.951 167C284.277 166.049 282.447 164.366 282.2 162.362C282.122 161.891 282.145 161.409 282.266 160.948C282.388 160.486 282.606 160.055 282.905 159.684C283.205 159.312 283.58 159.008 284.006 158.792C284.431 158.576 284.898 158.452 285.375 158.429C288.238 158.356 291.293 162.536 292.135 164.951C292.19 165.107 292.602 166.909 292.803 167.906C293.096 166.991 293.37 166.022 293.718 165.088C294.632 162.344 295.666 159.655 296.672 156.938C296.983 156.105 297.276 155.273 297.587 154.449C297.194 154.449 292.556 153.964 290.69 152.894C289.034 151.979 287.186 150.26 286.93 148.256C286.855 147.786 286.879 147.304 287.002 146.844C287.125 146.384 287.343 145.954 287.642 145.583C287.941 145.212 288.315 144.909 288.739 144.691C289.163 144.474 289.628 144.349 290.104 144.322C292.977 144.249 296.032 148.43 296.874 150.845C296.938 151.028 297.523 153.589 297.642 154.294C298.301 152.464 298.95 150.635 299.472 148.805C300.245 146.335 300.857 143.817 301.301 141.267C301.118 141.267 296.27 140.81 294.367 139.712C292.702 138.797 290.854 137.077 290.607 135.074C290.532 134.603 290.557 134.122 290.68 133.662C290.802 133.201 291.02 132.772 291.32 132.401C291.619 132.03 291.993 131.726 292.417 131.509C292.841 131.292 293.306 131.166 293.782 131.14C296.645 131.076 299.7 135.248 300.542 137.663C300.597 137.827 301.045 139.803 301.237 140.746H301.402C301.78 138.169 301.927 135.563 301.841 132.961C301.841 131.524 301.704 130.161 301.567 128.826C300.652 128.826 296.499 128.826 294.669 128.039C292.839 127.252 290.891 125.807 290.415 123.84C290.288 123.379 290.26 122.897 290.333 122.425C290.405 121.952 290.576 121.5 290.835 121.099C291.094 120.697 291.435 120.355 291.836 120.094C292.236 119.834 292.688 119.66 293.16 119.586C296.005 119.202 299.499 123.017 300.606 125.331C300.661 125.459 301.137 126.804 301.457 127.783C301.393 127.188 301.329 126.566 301.246 125.999C300.963 123.849 300.56 121.891 300.194 120.172C299.975 119.193 299.764 118.342 299.554 117.491C298.639 117.034 295.053 115.149 293.818 113.622C292.583 112.094 291.504 109.908 291.989 107.941C292.093 107.472 292.296 107.031 292.584 106.646C292.871 106.261 293.238 105.942 293.658 105.71C294.078 105.477 294.543 105.336 295.022 105.297C295.5 105.257 295.982 105.32 296.435 105.48Z" fill="#92E3A9"/>
<path d="M348.286 149.692C346.045 149.601 341.562 147.305 341.562 147.296C341.562 147.286 343.968 144.807 344.142 144.67C346.145 143.069 350.957 141.166 353.345 142.749C353.734 143.024 354.061 143.378 354.305 143.788C354.549 144.198 354.704 144.654 354.76 145.128C354.816 145.601 354.772 146.081 354.63 146.537C354.489 146.992 354.254 147.413 353.939 147.771C352.659 149.308 350.198 149.766 348.286 149.692Z" fill="#92E3A9"/>
<g opacity="0.5">
<path opacity="0.5" d="M301.987 128.451C301.933 128.451 302.619 125.038 302.692 124.791C303.479 122.358 306.443 118.113 309.306 118.122C309.782 118.136 310.25 118.25 310.679 118.456C311.108 118.662 311.49 118.957 311.798 119.32C312.106 119.683 312.334 120.107 312.467 120.564C312.6 121.022 312.636 121.502 312.572 121.974C312.361 123.996 310.55 125.706 308.913 126.703C306.991 127.902 301.987 128.451 301.987 128.451Z" fill="white"/>
<path opacity="0.5" d="M296.435 105.48C299.133 106.45 300.478 111.444 300.387 114.006C300.387 114.225 299.874 117.665 299.829 117.665H299.774C299.984 118.452 300.213 119.303 300.441 120.227C300.844 121.946 301.283 123.886 301.622 126.045C302.014 128.36 302.271 130.697 302.39 133.043C302.536 135.668 302.447 138.301 302.125 140.91C302.12 140.941 302.12 140.971 302.125 141.002C302.481 140.242 303.533 138.138 303.634 137.983C305.043 135.842 309.013 132.494 311.785 133.299C312.239 133.439 312.659 133.673 313.017 133.986C313.375 134.298 313.664 134.683 313.864 135.114C314.064 135.545 314.171 136.014 314.179 136.489C314.186 136.964 314.094 137.436 313.907 137.873C313.176 139.758 310.98 140.938 309.141 141.459C307.065 142.054 302.436 141.349 302.07 141.294C301.68 143.94 301.111 146.556 300.368 149.125C299.941 150.625 299.478 152.126 298.978 153.626C299.298 152.976 299.6 152.4 299.646 152.318C301.054 150.177 305.025 146.829 307.796 147.625C308.252 147.764 308.672 147.997 309.031 148.309C309.39 148.622 309.679 149.006 309.879 149.438C310.08 149.869 310.187 150.338 310.193 150.814C310.2 151.29 310.107 151.762 309.919 152.199C309.187 154.093 306.991 155.264 305.153 155.794C303.314 156.325 299.325 155.794 298.283 155.657C298.09 156.224 297.898 156.8 297.697 157.368C296.782 160.112 295.794 162.856 294.953 165.546C294.651 166.461 294.385 167.449 294.12 168.4C294.413 167.824 294.66 167.339 294.706 167.275C296.105 165.134 300.085 161.786 302.847 162.582C303.302 162.722 303.721 162.956 304.08 163.269C304.438 163.581 304.727 163.965 304.928 164.396C305.129 164.827 305.237 165.295 305.246 165.771C305.255 166.246 305.164 166.718 304.979 167.156C304.247 169.04 302.042 170.221 300.204 170.742C298.365 171.263 294.77 170.806 293.526 170.632C293.279 171.62 293.041 172.599 292.849 173.56C292.73 174.218 292.574 174.849 292.492 175.517C292.409 176.185 292.309 176.835 292.217 177.475C292.089 178.728 291.943 180.027 291.851 181.253C291.778 182.104 291.723 182.918 291.668 183.732C291.952 182.817 292.583 180.933 292.629 180.777C293.645 178.767 295.156 177.048 297.02 175.783C297.122 175.553 297.247 175.336 297.395 175.133C297.654 174.734 297.995 174.394 298.394 174.134C298.793 173.875 299.243 173.703 299.713 173.629C300.183 173.555 300.663 173.58 301.123 173.704C301.583 173.827 302.011 174.046 302.381 174.346C304.558 176.176 304.009 181.372 303.012 183.732C302.957 183.869 302.143 185.306 301.622 186.202C302.015 185.726 302.381 185.287 302.792 184.757C303.588 183.787 304.412 182.836 305.29 181.811L306.635 180.357C307.074 179.853 307.604 179.387 308.089 178.902C309.233 177.795 310.449 176.725 311.703 175.673C310.843 174.978 307.851 172.444 306.991 170.724C306.132 169.004 305.519 166.598 306.415 164.787C306.611 164.351 306.897 163.963 307.253 163.645C307.61 163.328 308.029 163.09 308.484 162.945C308.939 162.801 309.419 162.755 309.894 162.809C310.368 162.863 310.825 163.016 311.236 163.259C313.66 164.777 313.907 169.946 313.276 172.407C313.276 172.562 312.581 174.291 312.206 175.234C312.965 174.612 313.715 173.98 314.502 173.404C316.771 171.648 319.122 169.946 321.454 168.235L323.586 166.653C323.284 166.406 319.661 163.478 318.692 161.557C317.841 159.847 317.219 157.432 318.115 155.611C318.313 155.177 318.599 154.789 318.955 154.473C319.312 154.156 319.731 153.918 320.186 153.774C320.64 153.63 321.12 153.583 321.594 153.637C322.068 153.69 322.525 153.842 322.936 154.083C325.361 155.611 325.608 160.78 324.976 163.231C324.931 163.424 323.988 165.912 323.714 166.534C325.278 165.363 326.824 164.192 328.288 162.975C330.292 161.339 332.187 159.572 333.96 157.688C333.823 157.578 330.026 154.541 329.038 152.565C328.178 150.854 327.565 148.439 328.462 146.628C328.657 146.193 328.942 145.804 329.297 145.487C329.653 145.17 330.072 144.931 330.526 144.787C330.98 144.643 331.46 144.596 331.933 144.65C332.407 144.704 332.864 144.857 333.274 145.1C335.707 146.619 335.954 151.787 335.323 154.248C335.277 154.404 334.564 156.306 334.198 157.203L334.344 157.285C336.079 155.342 337.637 153.248 339 151.028C339.76 149.82 340.428 148.622 341.05 147.433C340.281 146.939 336.814 144.688 335.725 142.969C334.637 141.249 333.813 139.035 334.5 137.132C334.647 136.684 334.887 136.272 335.203 135.922C335.519 135.572 335.904 135.292 336.335 135.099C336.765 134.906 337.231 134.805 337.702 134.802C338.174 134.8 338.641 134.895 339.074 135.083C341.662 136.327 342.468 141.441 342.111 143.975C342.111 144.112 341.745 145.493 341.48 146.5C341.745 145.96 342.038 145.411 342.285 144.89C343.199 142.932 343.977 141.084 344.617 139.401C344.983 138.486 345.285 137.571 345.532 136.812C345.029 135.897 343.071 132.375 342.879 130.408C342.687 128.441 342.998 126.026 344.489 124.654C344.829 124.321 345.236 124.062 345.682 123.896C346.129 123.73 346.605 123.66 347.081 123.69C347.556 123.72 348.02 123.85 348.442 124.071C348.864 124.293 349.235 124.6 349.53 124.974C351.25 127.271 349.612 132.174 348.13 134.269C348.002 134.443 345.669 137.013 345.642 137.013V136.958C345.386 137.736 345.111 138.568 344.782 139.465C344.178 141.121 343.465 142.996 342.568 144.954C341.613 147.1 340.535 149.189 339.339 151.211C338.007 153.477 336.476 155.62 334.765 157.615L334.701 157.688C335.414 157.239 337.445 156.078 337.619 156.005C339.979 154.998 345.12 154.422 347.005 156.59C347.307 156.958 347.528 157.385 347.655 157.844C347.781 158.303 347.81 158.783 347.739 159.254C347.669 159.725 347.5 160.175 347.244 160.577C346.989 160.978 346.652 161.322 346.255 161.585C344.599 162.756 342.111 162.5 340.29 161.942C338.232 161.292 334.801 158.154 334.481 157.907C332.697 159.897 330.781 161.765 328.745 163.497C327.556 164.521 326.34 165.509 325.086 166.479C325.717 166.122 326.285 165.802 326.367 165.765C328.718 164.759 333.859 164.183 335.744 166.351C336.047 166.718 336.27 167.146 336.397 167.605C336.524 168.064 336.553 168.545 336.483 169.016C336.412 169.487 336.243 169.938 335.986 170.339C335.73 170.741 335.391 171.084 334.994 171.346C333.347 172.517 330.859 172.261 329.038 171.703C327.218 171.145 324.171 168.51 323.385 167.805L321.948 168.912C319.643 170.678 317.374 172.425 315.133 174.209C314.356 174.84 313.615 175.49 312.864 176.13C313.432 175.81 313.898 175.545 313.981 175.517C316.332 174.502 321.473 173.935 323.357 176.094C323.662 176.46 323.886 176.887 324.014 177.347C324.142 177.806 324.172 178.287 324.101 178.759C324.03 179.231 323.86 179.682 323.603 180.083C323.345 180.485 323.006 180.827 322.607 181.088C320.951 182.259 318.472 182.003 316.652 181.454C314.831 180.905 312.078 178.509 311.163 177.676C310.422 178.362 309.672 179.039 308.986 179.744C308.519 180.228 308.071 180.658 307.614 181.18C307.156 181.701 306.699 182.168 306.296 182.662C305.5 183.632 304.668 184.638 303.909 185.608C303.378 186.275 302.884 186.925 302.39 187.574C303.149 186.943 304.686 185.745 304.823 185.644C306.991 184.29 311.986 182.945 314.182 184.793C314.536 185.112 314.82 185.503 315.014 185.938C315.208 186.374 315.308 186.846 315.308 187.323C315.308 187.8 315.208 188.271 315.014 188.707C314.82 189.143 314.536 189.533 314.182 189.852C312.727 191.252 310.239 191.407 308.354 191.115C306.269 190.785 302.5 188.37 302.033 188.023C301.21 189.102 300.423 190.163 299.691 191.179C297.157 194.682 295.181 197.692 293.827 199.824L293.69 200.034L291.934 199.183C292.025 199.046 292.117 198.918 292.208 198.772C293.626 196.649 295.694 193.649 298.328 190.163C299.161 189.065 300.066 187.904 301.009 186.714C300.028 185.648 299.112 184.523 298.264 183.348C296.242 184.135 292.044 184.171 291.504 184.171C291.421 185.525 291.348 186.843 291.293 188.087C291.11 192.414 291.129 196.018 291.174 198.534V198.836L289.244 197.921C289.244 195.423 289.345 192.029 289.601 188.032C289.683 186.65 289.802 185.178 289.939 183.677C289.4 183.54 285.036 182.415 283.389 181.098C281.898 179.908 280.325 177.969 280.38 175.947C280.375 175.47 280.47 174.998 280.661 174.561C280.851 174.123 281.131 173.731 281.484 173.41C281.836 173.089 282.253 172.845 282.706 172.696C283.158 172.547 283.638 172.495 284.112 172.544C286.957 172.91 289.336 177.502 289.811 180.018C289.811 180.164 289.958 181.848 290.013 182.854C290.077 182.232 290.122 181.637 290.187 181.024C290.315 179.771 290.479 178.518 290.653 177.173C290.754 176.533 290.863 175.883 290.964 175.224C291.065 174.566 291.239 173.889 291.376 173.212C291.723 171.657 292.144 170.092 292.611 168.528C291.513 168.409 287.625 167.952 285.951 167C284.277 166.049 282.447 164.366 282.2 162.362C282.122 161.891 282.145 161.409 282.266 160.948C282.388 160.486 282.606 160.055 282.905 159.684C283.205 159.312 283.58 159.008 284.006 158.792C284.431 158.576 284.898 158.452 285.375 158.429C288.238 158.356 291.293 162.536 292.135 164.951C292.19 165.107 292.602 166.909 292.803 167.906C293.096 166.991 293.37 166.022 293.718 165.088C294.632 162.344 295.666 159.655 296.672 156.938C296.983 156.105 297.276 155.273 297.587 154.449C297.194 154.449 292.556 153.964 290.69 152.894C289.034 151.979 287.186 150.26 286.93 148.256C286.855 147.786 286.879 147.304 287.002 146.844C287.125 146.384 287.343 145.954 287.642 145.583C287.941 145.212 288.315 144.909 288.739 144.691C289.163 144.474 289.628 144.349 290.104 144.322C292.977 144.249 296.032 148.43 296.874 150.845C296.938 151.028 297.523 153.589 297.642 154.294C298.301 152.464 298.95 150.635 299.472 148.805C300.245 146.335 300.857 143.817 301.301 141.267C301.118 141.267 296.27 140.81 294.367 139.712C292.702 138.797 290.854 137.077 290.607 135.074C290.532 134.603 290.557 134.122 290.68 133.662C290.802 133.201 291.02 132.772 291.32 132.401C291.619 132.03 291.993 131.726 292.417 131.509C292.841 131.292 293.306 131.166 293.782 131.14C296.645 131.076 299.7 135.248 300.542 137.663C300.597 137.827 301.045 139.803 301.237 140.746H301.402C301.78 138.169 301.927 135.563 301.841 132.961C301.841 131.524 301.704 130.161 301.567 128.826C300.652 128.826 296.499 128.826 294.669 128.039C292.839 127.252 290.891 125.807 290.415 123.84C290.288 123.379 290.26 122.897 290.333 122.425C290.405 121.952 290.576 121.5 290.835 121.099C291.094 120.697 291.435 120.355 291.836 120.094C292.236 119.834 292.688 119.66 293.16 119.586C296.005 119.202 299.499 123.017 300.606 125.331C300.661 125.459 301.137 126.804 301.457 127.783C301.393 127.188 301.329 126.566 301.246 125.999C300.963 123.849 300.56 121.891 300.194 120.172C299.975 119.193 299.764 118.342 299.554 117.491C298.639 117.034 295.053 115.149 293.818 113.622C292.583 112.094 291.504 109.908 291.989 107.941C292.093 107.472 292.296 107.031 292.584 106.646C292.871 106.261 293.238 105.942 293.658 105.71C294.078 105.477 294.543 105.336 295.022 105.297C295.5 105.257 295.982 105.32 296.435 105.48Z" fill="white"/>
<path opacity="0.5" d="M348.286 149.692C346.045 149.601 341.562 147.305 341.562 147.296C341.562 147.286 343.968 144.807 344.142 144.67C346.145 143.069 350.957 141.166 353.345 142.749C353.734 143.024 354.061 143.378 354.305 143.788C354.549 144.198 354.704 144.654 354.76 145.128C354.816 145.601 354.772 146.081 354.63 146.537C354.489 146.992 354.254 147.413 353.939 147.771C352.659 149.308 350.198 149.766 348.286 149.692Z" fill="white"/>
</g>
<path d="M322.113 205.825C322.113 205.825 308.51 173.029 300.899 174.456C293.288 175.883 313.935 226.728 313.935 226.728C313.935 226.728 290.004 181.582 273.684 181.582C257.364 181.582 279.667 231.485 300.332 248.116C300.332 248.116 267.701 212.951 248.664 220.553C229.627 228.155 286.738 263.796 286.738 263.796C286.738 263.796 253.558 253.34 257.364 261.417C261.169 269.495 271.506 270.922 271.506 270.922L234 272.825H364.542L335.168 269.971C335.168 269.971 365.631 254.767 357.471 248.592C349.31 242.417 331.362 255.718 331.362 255.718C331.362 255.718 362.365 221.504 356.382 208.67C350.399 195.835 323.742 231.961 323.742 231.961C323.742 231.961 345.505 185.864 341.123 177.786C336.741 169.708 322.113 205.825 322.113 205.825Z" fill="#92E3A9"/>
<path opacity="0.4" d="M322.113 205.825C322.113 205.825 308.51 173.029 300.899 174.456C293.288 175.883 313.935 226.728 313.935 226.728C313.935 226.728 290.004 181.582 273.684 181.582C257.364 181.582 279.667 231.485 300.332 248.116C300.332 248.116 267.701 212.951 248.664 220.553C229.627 228.155 286.738 263.796 286.738 263.796C286.738 263.796 253.558 253.34 257.364 261.417C261.169 269.495 271.506 270.922 271.506 270.922L234 272.825H364.542L335.168 269.971C335.168 269.971 365.631 254.767 357.471 248.592C349.31 242.417 331.362 255.718 331.362 255.718C331.362 255.718 362.365 221.504 356.382 208.67C350.399 195.835 323.742 231.961 323.742 231.961C323.742 231.961 345.505 185.864 341.123 177.786C336.741 169.708 322.113 205.825 322.113 205.825Z" fill="white"/>
<path d="M326.468 207.545C314.493 242.902 314.493 267.922 314.493 267.922C314.493 267.922 328.636 268.461 343.328 257.584" stroke="#263238" stroke-linecap="round" stroke-linejoin="round"/>
<path d="M320.485 226.591C318.015 216.019 314.74 205.651 310.688 195.579" stroke="#263238" stroke-linecap="round" stroke-linejoin="round"/>
<path d="M285.128 205.916L315.582 251.062C315.582 251.062 336.256 233.68 343.328 223.865" stroke="#263238" stroke-linecap="round" stroke-linejoin="round"/>
<path d="M315.042 261.948C315.042 261.948 282.951 246.716 269.896 238.044" stroke="#263238" stroke-linecap="round" stroke-linejoin="round"/>
<path d="M286.235 18.4912H188.497C184.496 18.4912 181.252 21.7351 181.252 25.7365V265.58C181.252 269.581 184.496 272.825 188.497 272.825H286.235C290.236 272.825 293.48 269.581 293.48 265.58V25.7365C293.48 21.7351 290.236 18.4912 286.235 18.4912Z" fill="white" stroke="#263238" stroke-linecap="round" stroke-linejoin="round"/>
<path d="M289.729 63.0147C289.333 63.0147 288.954 62.8576 288.675 62.578C288.395 62.2983 288.238 61.9191 288.238 61.5236V41.5352C288.267 41.1587 288.438 40.8071 288.715 40.5507C288.992 40.2944 289.356 40.1519 289.734 40.1519C290.111 40.1519 290.475 40.2944 290.752 40.5507C291.029 40.8071 291.2 41.1587 291.229 41.5352V61.487C291.233 61.6863 291.197 61.8844 291.123 62.0696C291.049 62.2548 290.939 62.4234 290.8 62.5657C290.66 62.7079 290.493 62.8209 290.309 62.898C290.126 62.9751 289.928 63.0148 289.729 63.0147Z" fill="#263238"/>
<path d="M289.729 81.5304C289.333 81.5304 288.954 81.3733 288.675 81.0936C288.395 80.814 288.238 80.4347 288.238 80.0392V68.8695C288.267 68.493 288.438 68.1415 288.715 67.8851C288.992 67.6287 289.356 67.4863 289.734 67.4863C290.111 67.4863 290.475 67.6287 290.752 67.8851C291.029 68.1415 291.2 68.493 291.229 68.8695V80.0392C291.227 80.4355 291.068 80.8148 290.787 81.0942C290.505 81.3736 290.125 81.5304 289.729 81.5304Z" fill="#263238"/>
<path d="M277.772 18.4912H180.035C176.033 18.4912 172.79 21.7351 172.79 25.7365V265.58C172.79 269.581 176.033 272.825 180.035 272.825H277.772C281.774 272.825 285.018 269.581 285.018 265.58V25.7365C285.018 21.7351 281.774 18.4912 277.772 18.4912Z" fill="#263238" stroke="#263238" stroke-linecap="round" stroke-linejoin="round"/>
<path d="M277.544 35.4243H180.264V253.568H277.544V35.4243Z" fill="#92E3A9"/>
<path d="M214.459 28.4535H240.357" stroke="white" stroke-width="3" stroke-linecap="round" stroke-linejoin="round"/>
<path d="M225.418 261.289C225.418 263.073 224.302 264.518 222.921 264.518C221.54 264.518 220.433 263.073 220.433 261.289C220.433 259.505 221.549 258.051 222.921 258.051C224.293 258.051 225.418 259.496 225.418 261.289Z" fill="white"/>
<path d="M228.904 89.7087C238.22 89.7087 245.773 80.9029 245.773 70.0404C245.773 59.1779 238.22 50.3721 228.904 50.3721C219.587 50.3721 212.035 59.1779 212.035 70.0404C212.035 80.9029 219.587 89.7087 228.904 89.7087Z" fill="white"/>
<path d="M228.904 69.7934C232.44 69.7934 235.307 66.4472 235.307 62.3195C235.307 58.1917 232.44 54.8455 228.904 54.8455C225.367 54.8455 222.5 58.1917 222.5 62.3195C222.5 66.4472 225.367 69.7934 228.904 69.7934Z" fill="#263238" stroke="#263238" stroke-linecap="round" stroke-linejoin="round"/>
<path d="M228.904 71.7785C222.5 71.7785 217.258 76.691 217.258 82.7562C217.263 83.3206 217.315 83.8836 217.414 84.4394C218.834 86.0972 220.597 87.428 222.58 88.3404C224.563 89.2529 226.721 89.7253 228.904 89.7253C231.087 89.7253 233.244 89.2529 235.227 88.3404C237.211 87.428 238.973 86.0972 240.394 84.4394C240.484 83.8828 240.533 83.3201 240.54 82.7562C240.54 76.691 235.326 71.7785 228.904 71.7785Z" fill="#263238" stroke="#263238" stroke-linecap="round" stroke-linejoin="round"/>
<path d="M249.414 155.712H208.394C207.308 155.669 206.284 155.197 205.546 154.399C204.809 153.601 204.418 152.544 204.46 151.458V126.136C204.46 111.545 215.438 99.6709 228.904 99.6709C242.37 99.6709 253.338 111.563 253.338 126.136V151.44C253.361 151.978 253.278 152.516 253.094 153.022C252.909 153.528 252.626 153.993 252.262 154.39C251.897 154.786 251.458 155.107 250.969 155.334C250.481 155.561 249.952 155.689 249.414 155.712ZM212.318 147.204H245.48V126.164C245.48 116.265 238.043 108.206 228.904 108.206C219.765 108.206 212.318 116.265 212.318 126.164V147.204Z" fill="#263238"/>
<path d="M257.381 138.431H200.426V192.313H257.381V138.431Z" fill="white"/>
<path d="M237.201 175.526L232.975 165.363C233.909 164.656 234.665 163.74 235.181 162.688C235.698 161.637 235.96 160.479 235.948 159.307C235.948 155.254 232.92 151.988 229.178 151.988C225.437 151.988 222.418 155.263 222.418 159.307C222.404 160.478 222.664 161.636 223.179 162.688C223.694 163.739 224.448 164.656 225.382 165.363L221.165 175.526H237.201Z" fill="#263238" stroke="#263238" stroke-linecap="round" stroke-linejoin="round"/>
<path d="M211.55 240.734C211.638 240.798 211.743 240.833 211.852 240.834C211.93 240.834 212.006 240.815 212.075 240.778C212.143 240.741 212.202 240.688 212.245 240.624L277.544 151.806V150.122L211.477 240.038C211.436 240.089 211.406 240.147 211.387 240.209C211.369 240.271 211.363 240.337 211.369 240.401C211.376 240.466 211.396 240.528 211.427 240.585C211.458 240.642 211.5 240.693 211.55 240.734Z" fill="white"/>
<path d="M264.407 67.4241C264.368 67.4768 264.34 67.5366 264.325 67.6003C264.309 67.6639 264.306 67.73 264.317 67.7947C264.327 67.8594 264.35 67.9214 264.384 67.9771C264.419 68.0329 264.464 68.0812 264.517 68.1193C264.624 68.1956 264.757 68.2268 264.887 68.2062C265.017 68.1857 265.134 68.1151 265.212 68.0096L277.544 51.2412V49.5946L264.407 67.4241Z" fill="white"/>
<path d="M180.264 183.577L260.876 73.9558C260.954 73.849 260.986 73.7158 260.965 73.5854C260.945 73.455 260.873 73.3382 260.766 73.2605C260.66 73.1829 260.526 73.1509 260.396 73.1714C260.266 73.192 260.149 73.2636 260.071 73.3703L180.3 181.893L180.264 183.577Z" fill="white"/>
<path d="M203.976 251.547C204.053 251.545 204.13 251.526 204.2 251.492C204.269 251.457 204.33 251.407 204.378 251.345L208.952 245.161C208.991 245.109 209.019 245.049 209.035 244.985C209.05 244.921 209.053 244.855 209.043 244.791C209.033 244.726 209.01 244.664 208.975 244.608C208.941 244.552 208.896 244.504 208.842 244.466C208.735 244.39 208.602 244.359 208.472 244.379C208.342 244.4 208.226 244.47 208.147 244.576L203.573 250.751C203.534 250.803 203.505 250.862 203.489 250.926C203.472 250.989 203.469 251.055 203.478 251.119C203.488 251.184 203.51 251.246 203.543 251.302C203.577 251.358 203.621 251.407 203.674 251.446C203.759 251.514 203.866 251.549 203.976 251.547Z" fill="white"/>
<path d="M277.544 169.589L223.936 242.508C223.882 242.582 223.849 242.67 223.842 242.761C223.835 242.853 223.853 242.944 223.895 243.026C223.936 243.108 224 243.176 224.079 243.224C224.157 243.271 224.247 243.296 224.339 243.295C224.417 243.297 224.495 243.279 224.565 243.244C224.635 243.209 224.696 243.157 224.741 243.094L277.544 171.263V169.589Z" fill="white"/>
<path d="M89.268 67.1039C90.175 65.0941 90.613 62.9043 90.5487 60.7003C90.5487 56.6111 85.5996 54.2418 79.7815 53.5923C73.9633 52.9427 71.3836 55.3121 72.2435 56.8215C73.1371 58.0664 74.2279 59.1571 75.4727 60.0508C75.4727 60.0508 69.6546 56.8215 65.7758 59.4104C61.8971 61.9993 67.5048 60.9198 66.4253 63.4996C65.3459 66.0793 59.3173 65.009 57.8079 71.8975C56.2985 78.7859 60.6072 85.6836 56.7284 88.7024C52.8497 91.7213 41.1768 87.6229 37.7737 95.1609C34.3706 102.699 39.2008 106.047 31.0225 110.786C22.8441 115.524 16.8796 120.153 19.2489 131.781C21.6183 143.408 29.3758 147.479 44.6713 143.371C59.9668 139.264 58.8874 130.015 63.8822 120.501C68.877 110.987 76.5979 112.963 78.9673 107.575C81.3366 102.187 78.3178 95.7281 78.5373 90.7699C78.7569 85.8116 83.706 84.7413 85.6454 78.8774C87.5847 73.0135 89.268 67.1039 89.268 67.1039Z" fill="#263238" stroke="#263238" stroke-linecap="round" stroke-linejoin="round"/>
<path d="M21.033 131.561C20.6318 132.371 20.428 133.264 20.4384 134.168" stroke="white" stroke-width="0.5" stroke-linecap="round" stroke-linejoin="round"/>
<path d="M80.9984 62.8318C80.9984 62.8318 78.3089 59.7214 83.4867 61.1668C90.0092 62.9964 82.3523 70.5436 79.4066 72.0621C73.497 75.0901 65.6846 74.1204 61.1106 79.6276C56.9574 84.6041 62.5651 89.791 60.0768 93.7338C57.5886 97.6766 47.6264 95.3896 44.3148 100.137C41.0032 104.885 50.325 115.076 40.7836 120.675C33.886 124.727 26.3298 126.283 22.6797 129.493" stroke="white" stroke-width="0.5" stroke-linecap="round" stroke-linejoin="round"/>
<path d="M65.5288 81.2376C64.9635 82.5605 64.7919 84.0185 65.0348 85.4366C65.8582 88.9585 70.6334 95.6 66.279 99.3324C61.9245 103.065 54.4506 102.854 53.2156 107.227C51.9806 111.6 54.4597 123.611 50.3157 129.182C46.1716 134.754 38.0756 134.369 33.7211 138.102C29.3667 141.834 29.9887 143.911 29.9887 143.911" stroke="white" stroke-width="0.5" stroke-linecap="round" stroke-linejoin="round"/>
<path d="M67.7245 77.1393C67.3475 77.6722 66.9994 78.2249 66.6816 78.7951" stroke="white" stroke-width="0.5" stroke-linecap="round" stroke-linejoin="round"/>
<path d="M92.0582 131.232L93.1103 139.465C93.1103 139.465 98.5991 144.954 102.633 148.348C106.668 151.742 117.005 158.923 117.005 158.923L111.763 160.414C111.763 160.414 94.6288 150.26 91.2441 149.436C87.8593 148.613 85.3253 143.728 84.2732 142.246C83.2212 140.764 89.3047 129.75 92.0582 131.232Z" fill="white" stroke="#263238" stroke-linecap="round" stroke-linejoin="round"/>
<path d="M102.523 265.186C102.523 265.186 107.701 269.559 109.842 271.023C111.983 272.486 114.48 273.145 114.087 273.941C113.693 274.737 112.623 275.533 107.582 274.856C102.542 274.179 101.087 272.468 100.154 272.203C99.2211 271.938 96.9706 272.605 95.2508 271.544C93.531 270.483 96.2571 264.162 96.2571 264.162C97.0125 265.045 98.0561 265.632 99.203 265.82C100.35 266.007 101.526 265.783 102.523 265.186Z" fill="white" stroke="#263238" stroke-linecap="round" stroke-linejoin="round"/>
<path d="M114.068 273.941C114.072 273.898 114.072 273.855 114.068 273.813C111.158 274.08 108.224 273.804 105.414 272.999C102.158 272.23 101.197 270.501 98.0958 270.501C96.8788 270.512 95.6689 270.314 94.5189 269.916C94.4856 270.221 94.5274 270.53 94.6406 270.815C94.7538 271.1 94.935 271.354 95.1685 271.553C96.8883 272.614 99.1479 271.947 100.072 272.212C100.996 272.477 102.459 274.206 107.5 274.865C112.541 275.524 113.666 274.737 114.068 273.941Z" fill="white" stroke="#263238" stroke-linecap="round" stroke-linejoin="round"/>
<path d="M75.4179 88.3822C75.4179 88.3822 76.4151 95.0969 75.1344 97.8047C73.8536 100.513 69.8468 100.805 66.4254 101.382C63.0041 101.958 55.1459 104.949 55.9967 112.661C56.8474 120.373 66.709 137.077 66.709 141.788C66.709 146.5 63.7085 148.924 60.4243 158.063C57.1402 167.202 57.5701 184.199 58.5947 195.195C59.3457 202.452 60.7791 209.622 62.876 216.61C62.876 216.61 54.6428 229.893 50.9835 235.602C47.3243 241.31 34.5171 266.165 34.5171 266.165C34.5171 266.165 34.5171 267.016 36.5114 267.592C37.9144 267.934 39.366 268.029 40.8018 267.876C40.8018 267.876 65.3551 238.319 69.9291 233.324C74.5031 228.329 78.7844 219.602 79.3516 215.613C79.9188 211.625 79.2144 187.199 79.2144 187.199C79.2144 187.199 84.3464 199.476 88.3624 205.761C90.7982 209.607 93.0333 213.576 95.0588 217.653C94.4964 222.822 94.4964 228.036 95.0588 233.205C96.0559 240.34 95.2143 263.265 96.2114 265.122C97.2086 266.979 101.078 266.202 101.938 265.351C102.798 264.5 103.201 258.947 103.201 258.947C103.201 258.947 104.911 241.566 105.945 233.388C106.979 225.209 108.689 218.248 108.095 216.391C107.5 214.534 103.951 194.682 101.234 185.287C98.5167 175.892 90.2561 158.301 88.4265 153.736C86.5969 149.171 85.5631 145.018 85.8558 143.591C86.1486 142.164 91.7106 133.601 93.1743 131.314C94.0087 129.764 94.4689 128.04 94.5182 126.28C94.5674 124.52 94.2043 122.773 93.4579 121.178C91.7472 117.464 93.4579 112.46 93.1743 109.468C92.8907 106.477 88.463 105.178 86.176 104.044C83.889 102.909 83.0291 100.33 83.0291 98.1889C83.1688 96.3857 83.6046 94.6178 84.319 92.9562C84.319 92.9562 77.275 88.3822 75.4179 88.3822Z" fill="white" stroke="#263238" stroke-linecap="round" stroke-linejoin="round"/>
<path d="M92.7259 118.928C91.9737 117.016 91.3472 115.057 90.8506 113.064" stroke="#263238" stroke-linecap="round" stroke-linejoin="round"/>
<path d="M74.1831 134.827C74.1831 134.827 76.7629 135.394 81.9315 132.814" stroke="#263238" stroke-linecap="round" stroke-linejoin="round"/>
<path d="M101.261 185.196C98.6723 176.194 90.997 159.755 88.7009 154.33C77.7232 158.447 67.4592 154.934 62.6381 152.665C61.9429 154.184 61.1928 155.94 60.4243 158.063C57.1402 167.211 57.5701 184.199 58.5947 195.195C59.3457 202.452 60.7791 209.622 62.876 216.61C62.876 216.61 54.6428 229.893 50.9835 235.602C47.3243 241.31 34.5171 266.165 34.5171 266.165C34.5171 266.165 34.5171 267.016 36.5114 267.592C37.9144 267.934 39.366 268.029 40.8018 267.876C40.8018 267.876 65.3551 238.319 69.9291 233.324C74.5031 228.329 78.7844 219.602 79.3516 215.613C79.9188 211.625 79.2144 187.199 79.2144 187.199C79.2144 187.199 84.3464 199.476 88.3624 205.761C90.7982 209.607 93.0333 213.576 95.0588 217.653C94.4964 222.822 94.4964 228.036 95.0588 233.205C96.0559 240.34 95.2143 263.265 96.2114 265.122C97.2086 266.979 101.078 266.202 101.938 265.351C102.798 264.5 103.201 258.947 103.201 258.947C103.201 258.947 104.911 241.566 105.945 233.388C106.979 225.209 108.689 218.248 108.095 216.391C107.5 214.534 103.978 194.618 101.261 185.196Z" fill="#263238" stroke="#263238" stroke-linecap="round" stroke-linejoin="round"/>
<path d="M157.193 176.13V174.264H158.757V159.609H157.193H141.751H140.186V174.264H141.751V176.13H140.177V179.533H146.206V178.39H152.737V179.533H158.766V176.13H157.193Z" fill="#92E3A9" stroke="#263238" stroke-linecap="round" stroke-linejoin="round"/>
<path d="M57.3872 155.227H165.114C165.546 155.227 165.96 155.398 166.266 155.704C166.571 156.009 166.743 156.423 166.743 156.855V160.13C166.743 160.562 166.571 160.976 166.266 161.282C165.96 161.587 165.546 161.759 165.114 161.759H57.3872V155.218V155.227Z" fill="#92E3A9" stroke="#263238" stroke-linecap="round" stroke-linejoin="round"/>
<path d="M134.706 154.248H128.147C127.647 154.248 127.242 154.654 127.242 155.154V161.841C127.242 162.341 127.647 162.747 128.147 162.747H134.706C135.207 162.747 135.612 162.341 135.612 161.841V155.154C135.612 154.654 135.207 154.248 134.706 154.248Z" fill="#92E3A9" stroke="#263238" stroke-linecap="round" stroke-linejoin="round"/>
<path d="M60.7574 161.248C62.2753 151.979 55.9919 143.235 46.7231 141.717C37.4542 140.199 28.7099 146.483 27.1921 155.752C25.6743 165.02 31.9577 173.765 41.2265 175.283C50.4953 176.8 59.2396 170.517 60.7574 161.248Z" fill="#92E3A9" stroke="#263238" stroke-linecap="round" stroke-linejoin="round"/>
<path d="M47.4707 158.456C48.4566 157.984 49.2933 157.249 49.8888 156.333C50.4843 155.416 50.8156 154.353 50.8463 153.26C50.8463 149.921 47.7726 147.213 43.9761 147.213C40.1797 147.213 37.106 149.958 37.106 153.26C37.1346 154.353 37.4651 155.417 38.0608 156.334C38.6566 157.251 39.4944 157.986 40.4816 158.456C39.495 158.93 38.6579 159.666 38.0624 160.585C37.4669 161.503 37.136 162.567 37.106 163.661C37.106 167 40.1797 169.708 43.9761 169.708C47.7726 169.708 50.8463 166.964 50.8463 163.661C50.8142 162.568 50.4825 161.504 49.8872 160.586C49.2919 159.668 48.456 158.932 47.4707 158.456Z" fill="white" stroke="#263238" stroke-linecap="round" stroke-linejoin="round"/>
<path d="M113.647 161.905C113.647 161.905 118.972 164.155 120.618 164.155C122.265 164.155 124.168 162.5 125.11 160.496C126.052 158.493 126.025 157.541 125.467 158.017L124.287 158.932C124.287 158.932 125.201 156.928 124.168 157.166C123.452 157.405 122.858 157.914 122.512 158.584C122.512 158.584 122.393 156.81 121.451 157.669C120.827 158.234 120.271 158.87 119.795 159.563C119.795 159.563 119.676 157.322 119.081 157.907C118.487 158.493 116.255 161.685 116.255 161.685L113.647 161.905Z" fill="white" stroke="#263238" stroke-linecap="round" stroke-linejoin="round"/>
<path d="M119.795 159.545C119.795 159.545 119.438 162.381 117.673 162.856L119.795 159.545Z" fill="white"/>
<path d="M119.795 159.545C119.795 159.545 119.438 162.381 117.673 162.856" stroke="#263238" stroke-linecap="round" stroke-linejoin="round"/>
<path d="M122.512 158.603C122.512 158.603 121.597 163.085 120.152 163.799L122.512 158.603Z" fill="white"/>
<path d="M122.512 158.603C122.512 158.603 121.597 163.085 120.152 163.799" stroke="#263238" stroke-linecap="round" stroke-linejoin="round"/>
<path d="M124.287 158.95C123.815 160.586 123.181 162.17 122.393 163.68L124.287 158.95Z" fill="white"/>
<path d="M124.287 158.95C123.815 160.586 123.181 162.17 122.393 163.68" stroke="#263238" stroke-linecap="round" stroke-linejoin="round"/>
<path d="M85.8374 103.769C84.9161 103.147 84.1698 102.299 83.67 101.306C83.1703 100.313 82.9338 99.2081 82.9832 98.0974C83.1473 96.3227 83.5984 94.5864 84.3189 92.9562C84.3189 92.9562 77.3206 88.3822 75.4636 88.3822C75.4636 88.3822 76.4607 95.0969 75.18 97.8047C74.7602 98.647 74.0757 99.3283 73.2314 99.7441C74.9228 104.298 77.2148 108.605 80.0467 112.551C82.6173 115.781 83.8706 108.974 85.8374 103.769Z" fill="white" stroke="#263238" stroke-linecap="round" stroke-linejoin="round"/>
<path d="M64.2389 102.306C62.4932 102.604 60.8408 103.303 59.4119 104.35C57.9831 105.396 56.817 106.76 56.0057 108.334C53.1881 113.768 40.8748 138.431 41.9269 139.904C47.9097 148.32 69.6728 154.376 71.8867 156.59C74.0998 158.905 76.529 161.003 79.141 162.856C81.3549 164.265 85.7734 163.661 86.5784 163.259C87.3834 162.856 87.9872 161.045 86.5784 161.045C86.0402 161.052 85.5158 160.874 85.0929 160.541C84.67 160.208 84.3741 159.74 84.2548 159.215C84.0535 158.41 86.4686 160.02 87.6762 159.417C88.8837 158.813 84.9775 156.608 83.77 155.602C82.5624 154.596 81.5561 153.196 79.9461 153.196C78.336 153.196 75.308 153.196 75.308 153.196C75.308 153.196 67.8981 147.826 63.4156 143.828C59.9277 140.681 56.1231 137.904 52.0629 135.54L65.6477 113.192" fill="white"/>
<path d="M64.2389 102.306C62.4932 102.604 60.8408 103.303 59.4119 104.35C57.9831 105.396 56.817 106.76 56.0057 108.334C53.1881 113.768 40.8748 138.431 41.9269 139.904C47.9097 148.32 69.6728 154.376 71.8867 156.59C74.0998 158.905 76.529 161.003 79.141 162.856C81.3549 164.265 85.7734 163.661 86.5784 163.259C87.3834 162.856 87.9872 161.045 86.5784 161.045C86.0402 161.052 85.5158 160.874 85.0929 160.541C84.67 160.208 84.3741 159.74 84.2548 159.215C84.0535 158.41 86.4686 160.02 87.6762 159.417C88.8837 158.813 84.9775 156.608 83.77 155.602C82.5624 154.596 81.5561 153.196 79.9461 153.196C78.336 153.196 75.308 153.196 75.308 153.196C75.308 153.196 67.8981 147.826 63.4156 143.828C59.9277 140.681 56.1231 137.904 52.0629 135.54L65.6477 113.192" stroke="#263238" stroke-linecap="round" stroke-linejoin="round"/>
<path d="M83.7609 155.611C82.5533 154.605 81.547 153.205 79.937 153.205C78.3269 153.205 75.2989 153.205 75.2989 153.205C75.2989 153.205 67.889 147.835 63.4065 143.838C59.9186 140.69 56.114 137.913 52.0538 135.55L57.4877 126.603C54.7097 124.921 51.5319 124.015 48.2848 123.977C44.6256 131.607 41.3414 139.145 41.8812 139.941C47.864 148.357 69.6272 154.413 71.841 156.627C74.0542 158.941 76.4833 161.04 79.0954 162.893C81.3092 164.302 85.7277 163.698 86.5327 163.295C87.3377 162.893 87.9415 161.082 86.5327 161.082C85.9945 161.089 85.4701 160.911 85.0472 160.578C84.6243 160.245 84.3285 159.777 84.2091 159.252C84.0079 158.447 86.4229 160.057 87.6305 159.453C88.838 158.85 84.9684 156.627 83.7609 155.611Z" fill="white" stroke="#263238" stroke-linecap="round" stroke-linejoin="round"/>
<path d="M91.1254 78.5298C90.4118 77.1027 90.4118 75.9592 90.6954 73.9558C90.979 71.9524 89.2683 67.0948 89.2683 67.0948C87.521 70.1136 82.4713 71.9066 80.2392 72.5836C77.7784 73.3337 81.3736 75.0352 80.9893 77.3131C80.6051 79.591 75.6926 80.9083 75.6926 80.9083C75.6926 80.9083 74.2564 77.9535 72.2621 77.9535C70.2678 77.9535 68.8499 82.5275 69.9843 84.9517C70.2798 85.6233 70.7947 86.1746 71.4445 86.5153C72.0944 86.856 72.8407 86.9659 73.5611 86.8271C73.5611 86.8271 73.4239 91.1175 76.1317 92.3982C79.021 93.7768 82.0352 94.8765 85.1334 95.6824C86.8441 95.966 88.5548 95.1152 89.2683 92.5446C89.8263 89.954 90.2084 87.3286 90.4118 84.6864C91.6097 83.9026 92.7119 82.9816 93.696 81.942C94.3821 80.954 91.8389 79.9569 91.1254 78.5298Z" fill="white" stroke="#263238" stroke-linecap="round" stroke-linejoin="round"/>
<path d="M88.3443 78.5938C88.3443 79.3806 88.0882 80.0118 87.7771 80.0118C87.4661 80.0118 87.21 79.3806 87.21 78.5938C87.21 77.8071 87.4661 77.1759 87.7771 77.1759C88.0882 77.1759 88.3443 77.8071 88.3443 78.5938Z" fill="#263238"/>
<path d="M85.8833 76.2336C85.8833 76.2336 87.4019 74.5229 88.5362 74.9072" stroke="#263238" stroke-linecap="round" stroke-linejoin="round"/>
<path d="M88.536 87.9614C87.8505 88.1682 87.1228 88.1926 86.4249 88.0322C85.727 87.8717 85.0831 87.532 84.5566 87.0466" stroke="#263238" stroke-linecap="round" stroke-linejoin="round"/>
<path d="M34.5811 266.165C34.5811 266.165 31.1689 273.008 31.297 273.941C31.425 274.874 38.1946 279.777 41.3598 281.497C44.525 283.217 50.2517 283.491 49.8492 281.104C49.4467 278.716 44.0127 277.124 42.6863 273.538C41.9799 271.683 41.3692 269.793 40.8567 267.876C38.6454 267.909 36.4698 267.316 34.5811 266.165Z" fill="white" stroke="#263238" stroke-linecap="round" stroke-linejoin="round"/>
<path d="M49.8677 281.14C47.4322 281.467 44.9537 281.116 42.7048 280.125C37.7923 277.994 33.0354 273.639 31.7272 272.404C31.4949 272.897 31.3464 273.426 31.2881 273.968C31.4253 274.883 38.1857 279.805 41.3509 281.525C44.5161 283.245 50.1971 283.482 49.8677 281.14Z" fill="white" stroke="#263238" stroke-linecap="round" stroke-linejoin="round"/>
</svg>
