<svg width="257" height="191" viewBox="0 0 257 191" fill="none" xmlns="http://www.w3.org/2000/svg">
<path d="M256.335 167.848H0V167.976H256.335V167.848Z" fill="#EBEBEB"/>
<path d="M230.65 176.097H213.67V176.225H230.65V176.097Z" fill="#EBEBEB"/>
<path d="M169.806 177.491H165.351V177.619H169.806V177.491Z" fill="#EBEBEB"/>
<path d="M213.157 171.339H203.319V171.467H213.157V171.339Z" fill="#EBEBEB"/>
<path d="M49.0368 172.2H26.8946V172.329H49.0368V172.2Z" fill="#EBEBEB"/>
<path d="M56.8499 172.2H53.6047V172.329H56.8499V172.2Z" fill="#EBEBEB"/>
<path d="M115.428 174.364H67.4007V174.492H115.428V174.364Z" fill="#EBEBEB"/>
<path d="M121.503 144.983H22.5113C21.7358 144.981 20.9926 144.672 20.4447 144.124C19.8968 143.575 19.5891 142.831 19.5891 142.055V2.90171C19.5959 2.13067 19.9066 1.39342 20.4537 0.850117C21.0008 0.306811 21.7403 0.00132083 22.5113 0H121.503C122.279 0 123.024 0.308415 123.573 0.857398C124.122 1.40638 124.43 2.15096 124.43 2.92734V142.055C124.43 142.832 124.122 143.576 123.573 144.125C123.024 144.674 122.279 144.983 121.503 144.983ZM22.5113 0.102534C21.7698 0.103892 21.0592 0.399403 20.5353 0.924202C20.0115 1.449 19.7173 2.16021 19.7173 2.90171V142.055C19.7173 142.797 20.0115 143.508 20.5353 144.033C21.0592 144.558 21.7698 144.853 22.5113 144.855H121.503C122.245 144.853 122.956 144.558 123.48 144.033C124.005 143.509 124.3 142.797 124.302 142.055V2.90171C124.3 2.15974 124.005 1.44854 123.48 0.923889C122.956 0.399236 122.245 0.103889 121.503 0.102534H22.5113Z" fill="#EBEBEB"/>
<path d="M232.398 144.983H133.402C132.626 144.981 131.882 144.673 131.333 144.124C130.785 143.575 130.476 142.831 130.474 142.055V2.90171C130.482 2.1302 130.794 1.39296 131.342 0.849797C131.89 0.306632 132.63 0.00130643 133.402 0H232.398C233.168 0.00266818 233.906 0.308755 234.452 0.851917C234.998 1.39508 235.308 2.13155 235.315 2.90171V142.055C235.315 142.83 235.008 143.573 234.461 144.122C233.915 144.67 233.173 144.98 232.398 144.983ZM133.402 0.102534C132.66 0.103889 131.949 0.399236 131.424 0.923889C130.899 1.44854 130.604 2.15974 130.603 2.90171V142.055C130.604 142.797 130.899 143.509 131.424 144.033C131.949 144.558 132.66 144.853 133.402 144.855H232.398C233.14 144.853 233.851 144.558 234.376 144.033C234.901 143.509 235.196 142.797 235.197 142.055V2.90171C235.196 2.15974 234.901 1.44854 234.376 0.923889C233.851 0.399236 233.14 0.103889 232.398 0.102534H133.402Z" fill="#EBEBEB"/>
<path d="M34.2411 167.848H103.81L103.81 20.8195H34.2411L34.2411 167.848Z" fill="#E6E6E6"/>
<path d="M32.698 167.848H102.267L102.267 20.8195H32.698L32.698 167.848Z" fill="#F5F5F5"/>
<path d="M99.4937 164.731L99.4937 23.9366L35.4767 23.9366L35.4767 164.731H99.4937Z" fill="#FAFAFA"/>
<path d="M84.7494 164.731L68.5285 23.9366H50.216L66.4369 164.731H84.7494Z" fill="white"/>
<path d="M36.6455 164.731L36.6455 23.9366H35.4767L35.4767 164.731H36.6455Z" fill="#E6E6E6"/>
<path d="M33.8465 40.3163L101.119 40.3163V36.1329L33.8465 36.1329V40.3163Z" fill="#F5F5F5"/>
<path d="M140.589 167.848V82.5397H112.5V167.848H140.589Z" fill="#F0F0F0"/>
<path d="M139.046 110.034V85.0313H114.043V110.034H139.046Z" fill="#F5F5F5"/>
<path d="M139.046 137.283V112.28H114.043V137.283H139.046Z" fill="#F5F5F5"/>
<path d="M139.046 164.531V139.528H114.043V164.531H139.046Z" fill="#F5F5F5"/>
<path d="M132.079 84.7032H120.99C120.986 85.0441 121.051 85.3823 121.18 85.698C121.309 86.0136 121.499 86.3004 121.741 86.5415C121.982 86.7826 122.268 86.9732 122.584 87.1021C122.9 87.231 123.238 87.2956 123.579 87.2922H129.464C129.806 87.2949 130.145 87.2299 130.462 87.1011C130.779 86.9723 131.067 86.7821 131.31 86.5415C131.553 86.3008 131.746 86.0146 131.878 85.6991C132.01 85.3836 132.078 85.0451 132.079 84.7032Z" fill="#E6E6E6"/>
<path d="M132.079 111.952H120.99C120.99 112.639 121.262 113.298 121.748 113.784C122.233 114.27 122.892 114.544 123.579 114.546H129.464C129.807 114.548 130.146 114.482 130.463 114.353C130.779 114.223 131.067 114.033 131.31 113.792C131.553 113.551 131.746 113.264 131.878 112.948C132.01 112.632 132.078 112.294 132.079 111.952Z" fill="#E6E6E6"/>
<path d="M132.079 139.2H120.99C120.99 139.887 121.262 140.546 121.748 141.032C122.233 141.519 122.892 141.793 123.579 141.794H129.464C129.807 141.796 130.146 141.731 130.463 141.601C130.779 141.472 131.067 141.281 131.31 141.04C131.553 140.799 131.746 140.512 131.878 140.197C132.01 139.881 132.078 139.542 132.079 139.2Z" fill="#E6E6E6"/>
<path d="M154.616 167.848V82.5397H140.584V167.848H154.616Z" fill="#F5F5F5"/>
<path d="M215.572 165.751H223.36V101.524H215.572V165.751Z" fill="#F0F0F0"/>
<path d="M147.505 167.848H222.283V165.751H147.505V167.848Z" fill="#F0F0F0"/>
<path d="M215.572 101.524H146.423V165.751H215.572V101.524Z" fill="#FAFAFA"/>
<path d="M159.953 139.056H202.022C204.009 139.056 205.914 138.267 207.319 136.863C208.723 135.458 209.513 133.553 209.513 131.566C209.513 129.58 208.723 127.675 207.319 126.27C205.914 124.865 204.009 124.076 202.022 124.076H159.953C157.966 124.076 156.061 124.865 154.656 126.27C153.252 127.675 152.463 129.58 152.463 131.566C152.463 133.553 153.252 135.458 154.656 136.863C156.061 138.267 157.966 139.056 159.953 139.056ZM202.033 124.579C202.95 124.579 203.859 124.759 204.707 125.111C205.555 125.462 206.325 125.976 206.974 126.625C207.623 127.274 208.137 128.044 208.488 128.892C208.84 129.74 209.02 130.649 209.02 131.566C209.02 132.484 208.84 133.393 208.488 134.24C208.137 135.088 207.623 135.858 206.974 136.507C206.325 137.156 205.555 137.671 204.707 138.022C203.859 138.373 202.95 138.554 202.033 138.554H159.953C158.1 138.554 156.322 137.818 155.012 136.507C153.701 135.197 152.965 133.42 152.965 131.566C152.965 129.713 153.701 127.936 155.012 126.625C156.322 125.315 158.1 124.579 159.953 124.579H202.033Z" fill="#F0F0F0"/>
<path d="M159.953 157.692H202.022C204.009 157.692 205.914 156.903 207.319 155.498C208.723 154.093 209.513 152.188 209.513 150.202C209.513 148.215 208.723 146.31 207.319 144.906C205.914 143.501 204.009 142.712 202.022 142.712H159.953C157.966 142.712 156.061 143.501 154.656 144.906C153.252 146.31 152.463 148.215 152.463 150.202C152.463 152.188 153.252 154.093 154.656 155.498C156.061 156.903 157.966 157.692 159.953 157.692ZM202.022 143.214C202.956 143.189 203.884 143.351 204.754 143.69C205.624 144.03 206.416 144.541 207.085 145.192C207.754 145.843 208.286 146.621 208.649 147.482C209.012 148.342 209.199 149.266 209.199 150.199C209.199 151.133 209.012 152.057 208.649 152.917C208.286 153.777 207.754 154.556 207.085 155.207C206.416 155.858 205.624 156.368 204.754 156.708C203.884 157.048 202.956 157.21 202.022 157.184H159.953C159.02 157.21 158.091 157.048 157.221 156.708C156.352 156.368 155.559 155.858 154.89 155.207C154.221 154.556 153.689 153.777 153.326 152.917C152.963 152.057 152.776 151.133 152.776 150.199C152.776 149.266 152.963 148.342 153.326 147.482C153.689 146.621 154.221 145.843 154.89 145.192C155.559 144.541 156.352 144.03 157.221 143.69C158.091 143.351 159.02 143.189 159.953 143.214H202.022Z" fill="#F0F0F0"/>
<path d="M174.651 129.951H187.345C187.759 129.95 188.156 129.785 188.449 129.492C188.742 129.199 188.907 128.802 188.908 128.388C188.907 127.973 188.742 127.577 188.449 127.284C188.156 126.991 187.759 126.825 187.345 126.824H174.651C174.237 126.825 173.84 126.991 173.547 127.284C173.254 127.577 173.089 127.973 173.087 128.388C173.089 128.802 173.254 129.199 173.547 129.492C173.84 129.785 174.237 129.95 174.651 129.951Z" fill="#EBEBEB"/>
<path d="M159.953 120.421H202.022C204.009 120.421 205.914 119.632 207.319 118.227C208.723 116.822 209.513 114.917 209.513 112.931C209.513 110.944 208.723 109.039 207.319 107.634C205.914 106.23 204.009 105.441 202.022 105.441H159.953C157.966 105.441 156.061 106.23 154.656 107.634C153.252 109.039 152.463 110.944 152.463 112.931C152.463 114.917 153.252 116.822 154.656 118.227C156.061 119.632 157.966 120.421 159.953 120.421ZM202.022 105.943C203.876 105.943 205.653 106.679 206.963 107.99C208.274 109.3 209.01 111.078 209.01 112.931C209.01 114.784 208.274 116.561 206.963 117.872C205.653 119.182 203.876 119.918 202.022 119.918H159.953C158.1 119.918 156.322 119.182 155.012 117.872C153.701 116.561 152.965 114.784 152.965 112.931C152.965 111.078 153.701 109.3 155.012 107.99C156.322 106.679 158.1 105.943 159.953 105.943H202.022Z" fill="#F0F0F0"/>
<path d="M174.651 111.316H187.345C187.759 111.315 188.156 111.149 188.449 110.856C188.742 110.563 188.907 110.167 188.908 109.752C188.902 109.342 188.734 108.951 188.441 108.663C188.149 108.375 187.755 108.214 187.345 108.214H174.651C174.241 108.214 173.847 108.375 173.554 108.663C173.262 108.951 173.094 109.342 173.087 109.752C173.089 110.167 173.254 110.563 173.547 110.856C173.84 111.149 174.237 111.315 174.651 111.316Z" fill="#EBEBEB"/>
<path d="M174.651 148.582H187.345C187.755 148.582 188.149 148.421 188.441 148.133C188.734 147.845 188.902 147.454 188.908 147.044C188.9 146.634 188.732 146.244 188.44 145.956C188.148 145.669 187.755 145.507 187.345 145.506H174.651C174.241 145.507 173.848 145.669 173.556 145.956C173.264 146.244 173.095 146.634 173.087 147.044C173.094 147.454 173.262 147.845 173.554 148.133C173.847 148.421 174.241 148.582 174.651 148.582Z" fill="#EBEBEB"/>
<path d="M144.998 101.524L215.567 101.524V98.2582L144.998 98.2582V101.524Z" fill="#F0F0F0"/>
<path d="M224.887 98.2633H215.572V101.529H224.887V98.2633Z" fill="#E6E6E6"/>
<path d="M165.079 46.8528C166.653 47.6423 170.919 46.7913 169.499 49.6776C168.681 51.1896 167.703 52.6093 166.582 53.9123C164.992 55.8758 165.295 58.0136 167.171 58.7724C167.574 58.9104 167.929 59.1592 168.196 59.4901C169.063 60.7308 167.022 62.3918 166.018 63.6325C165.013 64.8732 164.613 66.0933 165.351 67.0161C166.171 68.0415 167.873 67.657 169.227 67.9646C172.477 68.7079 169.135 73.1938 169.478 75.4957C169.714 77.0747 171.016 77.5156 172.734 77.736C174.154 77.9206 176.045 78.0488 176.122 79.4996C176.194 80.7608 174.554 82.186 174.123 83.5087C173.919 84.0778 173.841 84.6847 173.896 85.2869C173.951 85.8891 174.137 86.4721 174.441 86.9948C174.729 87.4355 175.106 87.8115 175.547 88.0992C175.988 88.3869 176.485 88.5799 177.004 88.6661C178.614 89.0045 181.049 88.6661 181.167 90.4707C181.218 91.2807 180.654 92.0087 181.044 92.747C181.26 93.0584 181.541 93.3192 181.867 93.5113C182.194 93.7034 182.559 93.8222 182.936 93.8595C184.477 94.0949 186.048 94.0671 187.58 93.7774C189.472 93.4288 192.266 91.7627 191.241 90.158C191.064 89.9279 190.844 89.7351 190.592 89.5908C190.34 89.4465 190.063 89.3535 189.775 89.3172C189.324 89.2249 188.001 89.3685 187.832 89.0609C187.663 88.7533 188.119 87.569 188.134 87.1435C188.181 85.9618 187.995 84.7824 187.586 83.6727C187.063 82.2219 186.231 80.9026 185.145 79.8072C184.694 79.3509 183.982 79.0177 183.889 78.3564C183.797 77.695 184.212 76.967 184.674 76.3057C185.397 75.2803 186.519 74.3165 186.924 73.2297C187.56 71.5173 186.017 70.9739 184.586 70.5843C183.295 70.2305 181.593 69.7794 182.023 68.2106C182.341 67.0776 183.771 66.16 184.197 65.0423C184.776 63.5607 183.371 63.5043 182.372 62.9917C181.064 62.3047 180.736 61.0743 181.208 59.5209C181.992 56.9576 186.694 53.333 184.284 51.6668C183.674 51.2413 183.105 51.1029 182.746 50.462C182.387 49.8212 182.295 48.924 181.782 48.3191C180.972 47.3399 179.296 47.1758 178.424 46.2684C176.625 44.4023 180.506 41.0956 176.963 40.3061C176.215 40.2098 175.507 39.9141 174.912 39.4499C174.589 39.1474 174.323 37.6863 173.959 37.5838C172.334 37.1326 169.406 40.2855 168.484 41.2545C167.361 42.4234 163.213 45.9095 165.079 46.8528Z" fill="#E0E0E0"/>
<path d="M192.964 90.3374C192 88.5482 187.78 86.7487 190.58 84.6981C192.089 83.6707 193.713 82.8225 195.419 82.1706C197.87 81.1453 198.741 78.787 197.501 76.8337C197.215 76.4232 197.039 75.9469 196.988 75.4495C196.885 73.6449 199.577 73.2143 201.125 72.5632C202.673 71.9121 203.689 70.9175 203.519 69.5128C203.345 67.9748 201.643 67.2878 200.613 66.1343C198.142 63.3556 203.494 60.8384 204.422 58.2648C205.057 56.5013 204.165 55.2555 202.75 53.9482C201.597 52.8767 199.992 51.5745 200.7 50.0365C201.315 48.7036 203.525 48.2627 204.611 47.1758C205.113 46.6844 205.512 46.0982 205.784 45.4513C206.057 44.8045 206.199 44.1098 206.201 43.4077C206.176 42.1776 205.691 41.0014 204.842 40.1112C203.601 38.7629 201.253 37.6094 202.13 35.6766C202.52 34.8154 203.407 34.4309 203.458 33.4209C203.442 32.9836 203.339 32.5538 203.155 32.1567C202.971 31.7597 202.71 31.4034 202.386 31.1088C201.186 29.9321 199.782 28.9821 198.244 28.3045C196.388 27.4842 193.03 27.4586 193.076 29.7399C193.134 30.4116 193.433 31.0398 193.917 31.5086C194.271 31.888 195.512 32.5596 195.496 32.98C195.481 33.4004 194.471 34.3283 194.199 34.7538C193.519 35.963 193.056 37.2816 192.83 38.6501C192.513 40.4643 192.543 42.3222 192.917 44.1254C193.066 44.8688 193.522 45.6634 193.246 46.3914C192.969 47.1194 192.22 47.6116 191.467 47.9858C190.282 48.5805 188.77 48.883 187.832 49.7443C186.35 51.1029 187.422 52.6203 188.478 53.9072C189.431 55.0709 190.687 56.5884 189.462 57.9265C188.575 58.8903 186.817 58.9518 185.873 59.8182C184.571 60.982 185.776 61.9099 186.386 63.0788C187.165 64.6168 186.801 66.0523 185.55 67.3493C183.5 69.4923 177.399 70.2818 178.634 73.5014C178.947 74.3165 179.368 74.8138 179.352 75.6956C179.337 76.5774 178.932 77.5412 179.055 78.4896C179.245 79.9969 180.634 81.2068 180.921 82.6781C181.505 85.708 176.307 86.6872 179.014 89.6915C179.646 90.2841 180.115 91.029 180.378 91.8549C180.506 92.3676 179.952 94.0235 180.219 94.3568C181.413 95.8281 185.684 94.4234 187.017 93.9979C188.59 93.4596 194.117 92.465 192.964 90.3374Z" fill="#F5F5F5"/>
<path d="M203.771 86.3027C203.771 86.3027 203.258 98.2633 183.684 98.2633C164.111 98.2633 163.598 86.3027 163.598 86.3027H203.771Z" fill="#F0F0F0"/>
<path d="M128.167 191C183.065 191 227.569 188.402 227.569 185.197C227.569 181.991 183.065 179.393 128.167 179.393C73.2694 179.393 28.7659 181.991 28.7659 185.197C28.7659 188.402 73.2694 191 128.167 191Z" fill="#F5F5F5"/>
<g opacity="0.2">
<path opacity="0.2" d="M184.935 180.906L152.283 120.554L119.631 180.906H184.935Z" fill="#F48221"/>
<path opacity="0.2" d="M184.935 78.8075L152.283 139.154L119.631 78.8075H184.935Z" fill="#F48221"/>
</g>
<path d="M158.266 114.438L153.488 123.266C153.371 123.484 153.197 123.665 152.985 123.792C152.773 123.918 152.53 123.985 152.283 123.985C152.036 123.985 151.794 123.918 151.582 123.792C151.37 123.665 151.196 123.484 151.078 123.266L146.3 114.438C145.87 113.64 145.654 112.744 145.673 111.837C145.693 110.931 145.948 110.045 146.413 109.266C146.878 108.488 147.538 107.844 148.327 107.397C149.116 106.95 150.008 106.716 150.914 106.717H153.678C154.582 106.72 155.471 106.958 156.256 107.406C157.042 107.855 157.698 108.5 158.16 109.277C158.622 110.055 158.875 110.939 158.893 111.844C158.912 112.748 158.696 113.642 158.266 114.438Z" fill="#F48221"/>
<path d="M152.801 165.669L167.643 171.77C167.932 171.892 168.171 172.11 168.319 172.387C168.467 172.665 168.515 172.984 168.455 173.293C168.394 173.601 168.23 173.88 167.989 174.081C167.748 174.283 167.444 174.395 167.13 174.4H137.462C137.148 174.395 136.845 174.283 136.603 174.081C136.362 173.88 136.198 173.601 136.138 173.293C136.077 172.984 136.125 172.665 136.273 172.387C136.421 172.11 136.66 171.892 136.949 171.77L151.75 165.669C151.916 165.599 152.095 165.563 152.276 165.563C152.456 165.563 152.635 165.599 152.801 165.669Z" fill="#F48221"/>
<path d="M152.283 154.062C153.334 154.062 154.185 153.211 154.185 152.16C154.185 151.11 153.334 150.258 152.283 150.258C151.233 150.258 150.381 151.11 150.381 152.16C150.381 153.211 151.233 154.062 152.283 154.062Z" fill="#F48221"/>
<path d="M152.283 133.273C152.824 133.273 153.262 132.835 153.262 132.294C153.262 131.753 152.824 131.315 152.283 131.315C151.742 131.315 151.304 131.753 151.304 132.294C151.304 132.835 151.742 133.273 152.283 133.273Z" fill="#F48221"/>
<path d="M152.283 142.876C152.898 142.876 153.396 142.378 153.396 141.763C153.396 141.149 152.898 140.651 152.283 140.651C151.669 140.651 151.171 141.149 151.171 141.763C151.171 142.378 151.669 142.876 152.283 142.876Z" fill="#F48221"/>
<path d="M184.771 177.927H119.795C119.007 177.93 118.251 178.245 117.694 178.803C117.137 179.361 116.823 180.117 116.822 180.906C116.824 181.693 117.139 182.448 117.696 183.005C118.253 183.562 119.007 183.876 119.795 183.879H184.771C185.559 183.876 186.313 183.562 186.871 183.005C187.428 182.448 187.742 181.693 187.744 180.906C187.743 180.117 187.43 179.361 186.872 178.803C186.315 178.245 185.56 177.93 184.771 177.927Z" fill="#F48221"/>
<path d="M184.771 75.834H119.795C119.008 75.8367 118.253 76.1509 117.696 76.7079C117.139 77.265 116.825 78.0197 116.822 78.8075C116.825 79.5953 117.139 80.35 117.696 80.9071C118.253 81.4641 119.008 81.7783 119.795 81.781H184.771C185.559 81.7783 186.314 81.4641 186.871 80.9071C187.428 80.35 187.742 79.5953 187.744 78.8075C187.742 78.0197 187.428 77.265 186.871 76.7079C186.314 76.1509 185.559 75.8367 184.771 75.834Z" fill="#F48221"/>
<path d="M99.7808 179.783L96.1664 178.609L98.4119 170.083L102.026 171.257L99.7808 179.783Z" fill="#FF8B7B"/>
<path d="M96.11 178.127L100.17 179.444C100.239 179.465 100.297 179.511 100.332 179.573C100.368 179.635 100.378 179.708 100.36 179.778L99.5142 183.059C99.46 183.228 99.3412 183.368 99.1837 183.45C99.0261 183.532 98.8427 183.548 98.6734 183.495C97.2687 183.013 96.6227 182.71 94.8335 182.131C93.7313 181.772 90.1118 180.839 88.5943 180.347C87.0768 179.855 87.6049 178.368 88.2918 178.44C91.3678 178.763 94.1363 178.619 95.4179 178.147C95.64 178.064 95.8834 178.057 96.11 178.127Z" fill="#263238"/>
<path opacity="0.2" d="M102.026 171.262L98.4119 170.083L97.2533 174.482L100.873 175.656L102.026 171.262Z" fill="black"/>
<path d="M111.905 84.9595C111.905 84.9595 105.42 114.976 103.898 125.768C102.231 137.585 95.9717 173.072 95.9717 173.072L102.683 174.928C102.683 174.928 111.982 140.512 114.699 129.023C117.647 116.55 125.466 84.9339 125.466 84.9339L111.905 84.9595Z" fill="#F48221"/>
<path opacity="0.3" d="M119.924 94.8028C117.36 100.616 116.094 113.259 117.088 119.078C118.903 111.618 121.087 102.749 122.774 95.9255C122.205 93.9466 121.262 91.7678 119.924 94.8028Z" fill="black"/>
<path d="M102.852 175.061L95.664 173.082L95.8076 170.155L103.897 172.949L102.852 175.061Z" fill="#263238"/>
<path d="M94.6234 178.342C94.9577 178.44 95.3014 178.502 95.6487 178.527C95.6659 178.528 95.683 178.524 95.6981 178.516C95.7132 178.508 95.7257 178.495 95.7342 178.48C95.7428 178.466 95.7469 178.449 95.7463 178.431C95.7457 178.414 95.7403 178.398 95.7307 178.383C95.6384 178.265 94.8438 177.235 94.3465 177.266C94.2893 177.268 94.2337 177.286 94.1852 177.316C94.1367 177.347 94.0969 177.39 94.0697 177.44C94.0183 177.514 93.9874 177.601 93.9802 177.691C93.973 177.781 93.9897 177.871 94.0287 177.953C94.1741 178.149 94.385 178.287 94.6234 178.342ZM95.4385 178.342C94.7515 178.26 94.2799 178.086 94.1671 177.865C94.1435 177.813 94.1343 177.756 94.1406 177.699C94.147 177.642 94.1685 177.588 94.203 177.542C94.216 177.518 94.235 177.497 94.2583 177.482C94.2817 177.466 94.3085 177.457 94.3363 177.455C94.6029 177.425 95.1053 177.927 95.4385 178.327V178.342Z" fill="#263238"/>
<path d="M95.6128 178.522H95.6538C95.6687 178.518 95.6826 178.512 95.6942 178.502C95.7059 178.492 95.7149 178.479 95.7205 178.465C95.7205 178.424 96.1562 177.409 95.905 176.927C95.8738 176.867 95.8288 176.814 95.7736 176.774C95.7184 176.734 95.6545 176.707 95.5872 176.697C95.5144 176.675 95.4364 176.678 95.3657 176.706C95.295 176.734 95.2358 176.785 95.1975 176.85C94.9874 177.219 95.2796 178.147 95.5718 178.481L95.6128 178.522ZM95.6128 176.896C95.6471 176.906 95.679 176.923 95.7064 176.946C95.7337 176.969 95.756 176.998 95.7717 177.03C95.8576 177.443 95.8091 177.872 95.6333 178.255C95.3851 177.871 95.2916 177.408 95.3719 176.958C95.3719 176.912 95.4436 176.861 95.5718 176.886L95.6128 176.896Z" fill="#263238"/>
<path d="M118.806 56.4603C118.611 56.9217 118.447 57.2703 118.268 57.6599C118.088 58.0496 117.893 58.4084 117.704 58.7776C117.324 59.5209 116.924 60.2438 116.509 60.9667C115.67 62.4182 114.746 63.8185 113.741 65.1603C112.712 66.5478 111.572 67.8492 110.332 69.0515C109.01 70.3521 107.512 71.4601 105.882 72.3428L105.753 72.4094C105.546 72.5166 105.325 72.5959 105.097 72.6453C103.93 72.8881 102.72 72.8406 101.575 72.5068C100.624 72.2221 99.7189 71.8008 98.8887 71.2559C97.496 70.3194 96.2459 69.1867 95.177 67.8928C94.184 66.7129 93.2809 65.4602 92.4752 64.1452C91.6796 62.8529 90.9722 61.5084 90.3579 60.1208C90.1997 59.7537 90.1791 59.342 90.3 58.961C90.4208 58.5801 90.6749 58.2554 91.0158 58.0467C91.3566 57.838 91.7612 57.7591 92.1555 57.8246C92.5498 57.8901 92.9072 58.0956 93.1622 58.4033L93.2135 58.4648C94.0594 59.4902 94.9771 60.5822 95.8999 61.5767C96.7991 62.567 97.7542 63.505 98.7606 64.3862C99.65 65.1924 100.639 65.8815 101.703 66.4368C102.101 66.6414 102.528 66.7833 102.97 66.8572C103.217 66.9031 103.472 66.8819 103.708 66.7957L102.923 67.0982C103.983 66.3838 104.949 65.5399 105.8 64.5861C106.725 63.5464 107.582 62.4469 108.363 61.2948C109.173 60.1156 109.942 58.8801 110.665 57.6087C111.034 56.9781 111.388 56.3373 111.721 55.6862L112.234 54.7172C112.392 54.4045 112.567 54.0456 112.69 53.7944L112.721 53.7226C113.094 52.934 113.762 52.3234 114.582 52.0221C115.401 51.7208 116.305 51.7529 117.101 52.1115C117.897 52.4701 118.52 53.1265 118.837 53.9397C119.154 54.7528 119.139 55.6579 118.796 56.4603H118.806Z" fill="#263238"/>
<path opacity="0.3" d="M110.424 63.4223C112.034 59.1467 115.453 59.0749 116.935 60.2079C116.827 60.4078 116.714 60.6078 116.601 60.8077C115.797 62.2074 114.916 63.5612 113.961 64.8629C112.981 66.2022 111.904 67.4669 110.736 68.6464C110.367 69.0104 109.988 69.3693 109.593 69.7179C109.457 67.5853 109.74 65.4467 110.424 63.4223Z" fill="black"/>
<path d="M90.2298 60.3873L86.8975 60.5103L87.728 56.9473C88.8753 57.0042 90.014 57.1759 91.127 57.4599C91.3297 57.5213 91.515 57.6295 91.6681 57.7758C91.8211 57.9222 91.9375 58.1025 92.0079 58.3022C92.0783 58.5018 92.1007 58.7153 92.0732 58.9253C92.0458 59.1352 91.9693 59.3357 91.8499 59.5106C91.6696 59.7756 91.4284 59.9935 91.1465 60.1461C90.8646 60.2986 90.5503 60.3813 90.2298 60.3873Z" fill="#FF8B7B"/>
<path d="M92.0959 57.3779C91.7688 57.1186 91.3945 56.9253 90.9936 56.8089C90.7168 58.2648 88.943 60.7205 88.943 60.7205H90.3323C90.511 60.7211 90.6877 60.6823 90.8498 60.607C91.012 60.5317 91.1556 60.4217 91.2705 60.2848L92.2445 59.1159C92.3512 58.9931 92.4322 58.8501 92.4826 58.6954C92.533 58.5408 92.5518 58.3775 92.5379 58.2154C92.5241 58.0534 92.4778 57.8957 92.4019 57.7518C92.3259 57.608 92.2219 57.4808 92.0959 57.3779Z" fill="#F48221"/>
<path d="M84.3444 58.8698L85.2774 56.3577L87.7177 56.9524L86.8872 60.5104L84.3444 58.8698Z" fill="#FF8B7B"/>
<path d="M126.245 181.444H122.446L122.313 172.641H126.112L126.245 181.444Z" fill="#FF8B7B"/>
<path d="M122.246 181.003H126.517C126.552 181.002 126.588 181.007 126.621 181.02C126.655 181.032 126.686 181.051 126.712 181.075C126.738 181.1 126.759 181.129 126.774 181.161C126.789 181.194 126.797 181.229 126.798 181.264L127.004 184.643C127.004 184.821 126.934 184.991 126.809 185.118C126.684 185.245 126.515 185.317 126.337 185.32C124.85 185.294 124.143 185.207 122.236 185.207C121.082 185.207 117.222 185.325 115.627 185.325C114.033 185.325 114.089 183.746 114.751 183.602C117.786 182.967 120.493 182.064 121.564 181.239C121.757 181.083 121.998 181 122.246 181.003Z" fill="#263238"/>
<path opacity="0.2" d="M126.117 172.646H122.313L122.384 177.184H126.183L126.117 172.646Z" fill="black"/>
<path d="M119.319 84.9595C119.319 84.9595 117.868 117.981 118.483 128.865C119.16 140.779 120.575 176.086 120.575 176.086H127.537C127.537 176.086 129.29 141.738 129.71 129.946C130.167 117.13 132.233 84.9595 132.233 84.9595H119.319Z" fill="#F48221"/>
<path d="M127.819 176.087H120.298L119.724 173.287L128.024 173.703L127.819 176.087Z" fill="#263238"/>
<path d="M120.898 181.664C121.243 181.656 121.587 181.611 121.923 181.531C121.939 181.526 121.954 181.516 121.965 181.504C121.977 181.491 121.985 181.476 121.99 181.459C121.992 181.443 121.989 181.426 121.983 181.411C121.977 181.396 121.967 181.382 121.954 181.372C121.831 181.285 120.754 180.552 120.288 180.736C120.236 180.757 120.19 180.791 120.154 180.834C120.118 180.877 120.094 180.928 120.083 180.982C120.059 181.066 120.057 181.154 120.077 181.238C120.097 181.322 120.137 181.4 120.195 181.464C120.397 181.615 120.647 181.686 120.898 181.664ZM121.667 181.403C120.985 181.536 120.488 181.516 120.308 181.341C120.271 181.298 120.246 181.246 120.235 181.191C120.225 181.135 120.228 181.077 120.247 181.023C120.25 180.996 120.261 180.97 120.278 180.949C120.296 180.927 120.318 180.91 120.344 180.9C120.595 180.803 121.226 181.121 121.667 181.403Z" fill="#263238"/>
<path d="M121.892 181.531C121.905 181.535 121.92 181.535 121.933 181.531C121.946 181.524 121.957 181.513 121.965 181.501C121.973 181.488 121.978 181.474 121.979 181.459C121.979 181.413 122.066 180.321 121.682 179.952C121.633 179.904 121.574 179.868 121.509 179.847C121.444 179.826 121.375 179.819 121.308 179.829C121.233 179.832 121.161 179.86 121.103 179.908C121.046 179.956 121.006 180.022 120.99 180.096C120.898 180.511 121.467 181.305 121.846 181.531C121.861 181.536 121.877 181.536 121.892 181.531ZM121.379 179.993C121.415 179.992 121.45 179.998 121.482 180.012C121.515 180.025 121.545 180.045 121.569 180.07C121.781 180.436 121.869 180.86 121.82 181.28C121.492 180.998 121.113 180.393 121.169 180.121C121.169 180.07 121.21 180.008 121.338 179.993H121.379Z" fill="#263238"/>
<path d="M134.135 54.3122C134.192 53.9917 134.183 53.663 134.11 53.3458C134.037 53.0286 133.901 52.7294 133.709 52.4662C133.518 52.2029 133.275 51.981 132.996 51.8137C132.717 51.6464 132.407 51.5371 132.084 51.4925H132.043C130.818 51.3131 129.28 51.1285 127.773 51.0567C124.895 50.8926 122.011 50.8926 119.134 51.0567C117.806 51.1798 116.509 51.4002 115.474 51.6002H115.433C114.785 51.7309 114.186 52.0359 113.699 52.4822C113.212 52.9284 112.856 53.4991 112.669 54.1327C111.429 58.311 109.947 66.8418 111.885 84.9544H132.212C132.356 83.1396 131.951 77.2336 132.248 69.7128C132.545 64.544 133.176 59.3998 134.135 54.3122Z" fill="#263238"/>
<path opacity="0.3" d="M133.94 55.4298C133.52 57.8598 133.002 61.1665 132.643 64.6578C132.643 64.6578 130.787 61.0179 130.449 57.906C130.11 54.7941 132.781 54.5582 133.94 55.4298Z" fill="black"/>
<g opacity="0.2">
<path opacity="0.2" d="M120.308 55.9118C120.266 55.9098 120.225 55.8942 120.193 55.8673C120.16 55.8404 120.137 55.8036 120.128 55.7625C120.118 55.7215 120.122 55.6783 120.138 55.6396C120.155 55.6009 120.184 55.5686 120.221 55.5478L126.557 52.2616C126.603 52.2396 126.654 52.2359 126.702 52.2512C126.75 52.2665 126.79 52.2996 126.814 52.3436C126.837 52.3892 126.842 52.4422 126.827 52.4912C126.811 52.5401 126.777 52.5811 126.732 52.6051L120.395 55.881C120.368 55.8968 120.339 55.9072 120.308 55.9118Z" fill="white"/>
<path opacity="0.2" d="M123.21 56.2091C123.185 56.2102 123.16 56.2057 123.137 56.1959C123.114 56.1862 123.093 56.1714 123.076 56.1527L119.601 52.7025C119.566 52.6655 119.547 52.617 119.547 52.5666C119.547 52.5162 119.566 52.4677 119.601 52.4308C119.637 52.3954 119.686 52.3756 119.736 52.3756C119.787 52.3756 119.836 52.3954 119.872 52.4308L123.343 55.8862C123.378 55.9225 123.398 55.9713 123.398 56.022C123.398 56.0728 123.378 56.1215 123.343 56.1579C123.325 56.1748 123.304 56.1881 123.282 56.1969C123.259 56.2057 123.234 56.2099 123.21 56.2091Z" fill="white"/>
<path opacity="0.2" d="M127.788 51.0516C124.912 50.8875 122.03 50.8875 119.155 51.0516H119.011C118.941 51.3154 118.925 51.5905 118.963 51.8608C119 52.1311 119.092 52.391 119.231 52.6255C119.713 53.3945 120.723 53.8252 122.241 53.9072H122.81C126.911 53.9072 128.495 51.4156 128.562 51.308L128.706 51.0773L127.788 51.0516Z" fill="white"/>
</g>
<path d="M119.565 51.0208C122.077 50.4261 122.518 48.8728 122.348 47.1656C122.309 46.738 122.242 46.3133 122.149 45.8942L125.296 43.2795L127.608 41.3622C126.968 44.1459 126.245 49.2162 128.121 51.0721C128.121 51.0721 126.583 53.6355 122.261 53.4099C118.637 53.2099 119.565 51.0208 119.565 51.0208Z" fill="#FF8B7B"/>
<path opacity="0.2" d="M122.148 45.8941C122.242 46.3133 122.309 46.738 122.348 47.1655C123.522 46.9297 125.091 45.6788 125.255 44.4792C125.313 44.082 125.327 43.6797 125.296 43.2795L122.148 45.8941Z" fill="black"/>
<path d="M120.477 32.5545C118.77 33.5798 119.042 36.1432 118.58 37.9785C119.667 38.0862 121.38 36.1534 121.38 36.1534L122.405 33.2158L120.477 32.5545Z" fill="#263238"/>
<path d="M129.557 37.7119C128.465 41.3314 128.019 43.5 125.701 45.0123C124.956 45.5107 124.089 45.7958 123.193 45.8368C122.298 45.8779 121.408 45.6732 120.62 45.2451C119.833 44.8169 119.177 44.1816 118.724 43.4077C118.272 42.6339 118.039 41.751 118.052 40.8546C118.052 37.4043 119.826 32.0623 123.784 31.3241C124.637 31.1418 125.523 31.1871 126.353 31.4554C127.183 31.7238 127.928 32.2057 128.513 32.8529C129.098 33.5002 129.502 34.2898 129.685 35.1427C129.868 35.9956 129.824 36.8816 129.557 37.7119Z" fill="#FF8B7B"/>
<path d="M126.147 40.7828C128.711 37.8093 125.507 36.3431 128.126 34.2771C125.178 34.4155 120.323 34.2053 119.457 32.1854C118.591 30.1654 121.257 27.4278 123.476 27.1715C126.04 26.8741 125.486 30.0475 125.486 30.0475C125.486 30.0475 135.293 29.4375 132.181 33.6362C134.54 33.4927 133.889 37.3069 129.787 40.5265C128.757 40.87 126.147 40.7828 126.147 40.7828Z" fill="#263238"/>
<path d="M131.592 33.6875C131.592 33.6875 133.612 33.0877 133.545 31.4881C134.273 31.9905 134.35 33.5183 131.592 33.6875Z" fill="#263238"/>
<path d="M130.157 41.4903C129.567 42.2192 128.742 42.721 127.824 42.9104C126.66 43.1206 126.388 42.044 126.968 40.9931C127.48 40.0498 128.726 38.804 129.772 39.0654C130.818 39.3269 130.9 40.5727 130.157 41.4903Z" fill="#FF8B7B"/>
<path d="M123.717 37.6197C123.646 37.917 123.43 38.1323 123.23 38.0862C123.03 38.0401 122.933 37.7735 123.005 37.4761C123.076 37.1788 123.292 36.9635 123.487 37.0045C123.681 37.0455 123.789 37.3172 123.717 37.6197Z" fill="#263238"/>
<path d="M120.318 36.9378C120.247 37.2352 120.031 37.4505 119.836 37.4095C119.642 37.3685 119.534 37.0967 119.606 36.7994C119.678 36.502 119.893 36.2867 120.088 36.3277C120.282 36.3688 120.39 36.6405 120.318 36.9378Z" fill="#263238"/>
<path d="M121.364 37.3018C120.786 38.1458 120.096 38.908 119.314 39.5678C119.488 39.7557 119.701 39.9031 119.939 39.9997C120.176 40.0962 120.432 40.1395 120.687 40.1266L121.364 37.3018Z" fill="#FF5652"/>
<path d="M121.733 41.1725C122.088 41.2058 122.446 41.1666 122.785 41.0574C123.125 40.9481 123.438 40.771 123.707 40.5368C123.716 40.5291 123.723 40.5196 123.728 40.509C123.732 40.4984 123.735 40.4869 123.735 40.4752C123.735 40.4636 123.732 40.4521 123.728 40.4415C123.723 40.4309 123.716 40.4214 123.707 40.4137C123.69 40.3971 123.667 40.3878 123.643 40.3878C123.619 40.3878 123.596 40.3971 123.579 40.4137C123.284 40.6643 122.936 40.8432 122.56 40.9366C122.185 41.03 121.793 41.0353 121.415 40.952C121.404 40.9498 121.392 40.9499 121.381 40.9524C121.369 40.9548 121.358 40.9595 121.349 40.9662C121.339 40.9729 121.331 40.9815 121.325 40.9913C121.319 41.0012 121.315 41.0123 121.313 41.0238C121.308 41.0476 121.313 41.0722 121.327 41.0923C121.34 41.1125 121.361 41.1265 121.385 41.1315L121.733 41.1725Z" fill="#263238"/>
<path d="M125.03 36.7892C125.058 36.7986 125.089 36.7986 125.117 36.7892C125.138 36.7798 125.158 36.7661 125.174 36.7491C125.19 36.732 125.203 36.7118 125.211 36.6898C125.219 36.6678 125.223 36.6443 125.221 36.6209C125.22 36.5974 125.214 36.5745 125.204 36.5533C125.094 36.2912 124.921 36.0604 124.7 35.8815C124.479 35.7026 124.217 35.5811 123.938 35.528C123.89 35.5221 123.842 35.5348 123.804 35.5635C123.766 35.5922 123.74 35.6346 123.733 35.6818C123.73 35.7054 123.732 35.7293 123.738 35.7522C123.745 35.775 123.756 35.7964 123.77 35.815C123.785 35.8336 123.804 35.8491 123.824 35.8605C123.845 35.872 123.868 35.8792 123.892 35.8817C124.109 35.9276 124.312 36.0252 124.483 36.1662C124.654 36.3072 124.789 36.4875 124.876 36.6918C124.891 36.7199 124.913 36.7437 124.94 36.7607C124.967 36.7778 124.998 36.7876 125.03 36.7892Z" fill="#263238"/>
<path d="M119.478 34.8974C119.505 34.9074 119.535 34.9098 119.564 34.9044C119.593 34.899 119.619 34.886 119.642 34.8666C119.819 34.7193 120.028 34.6152 120.252 34.5627C120.476 34.5102 120.709 34.5107 120.933 34.5642C120.956 34.5716 120.98 34.5745 121.003 34.5727C121.027 34.5709 121.05 34.5644 121.071 34.5537C121.093 34.543 121.111 34.5282 121.127 34.5102C121.142 34.4922 121.154 34.4714 121.162 34.4488C121.169 34.4263 121.172 34.4025 121.17 34.3788C121.168 34.3551 121.162 34.332 121.151 34.3109C121.14 34.2897 121.126 34.2708 121.108 34.2553C121.09 34.2399 121.069 34.2281 121.046 34.2207C120.766 34.1514 120.473 34.1481 120.191 34.2113C119.909 34.2745 119.645 34.4023 119.421 34.5847C119.384 34.614 119.36 34.6568 119.354 34.7039C119.348 34.751 119.361 34.7984 119.39 34.8359C119.411 34.8661 119.442 34.8879 119.478 34.8974Z" fill="#263238"/>
<path d="M134.319 52.8511L134.745 53.4304L135.129 53.9738C135.386 54.3378 135.616 54.7018 135.857 55.0658C136.324 55.7989 136.765 56.5423 137.19 57.2908C138.043 58.7871 138.816 60.3272 139.507 61.9048C139.866 62.6841 140.174 63.4941 140.502 64.2887C140.83 65.0834 141.107 65.9088 141.358 66.7393C141.898 68.3923 142.343 70.0749 142.691 71.7788L142.732 71.9736C142.807 72.3177 142.814 72.6733 142.751 73.0199C142.689 73.3665 142.559 73.6974 142.368 73.9936C141.708 75.0074 140.924 75.9355 140.035 76.7568C139.122 77.5943 138.084 78.286 136.959 78.8075C135.849 79.3249 134.661 79.6541 133.443 79.7816C132.846 79.843 132.246 79.8533 131.648 79.8124C131.351 79.8124 131.054 79.756 130.756 79.7098L130.305 79.6227L129.792 79.4945C129.732 79.4799 129.68 79.4421 129.647 79.3893C129.615 79.3365 129.604 79.273 129.618 79.2125L130.326 76.2391C130.326 76.2134 130.459 76.2083 130.541 76.1878L130.823 76.1314C131.018 76.0904 131.207 76.0442 131.402 75.993C131.782 75.8901 132.154 75.7599 132.515 75.6033C133.213 75.3165 133.868 74.9316 134.458 74.4601C135.612 73.51 136.534 72.3089 137.154 70.9483L136.831 73.163C136.39 71.7122 135.924 70.2767 135.36 68.8566C134.796 67.4365 134.181 66.0421 133.509 64.6681C132.838 63.2942 132.12 61.9356 131.346 60.6129C130.966 59.9516 130.566 59.3005 130.167 58.6545L129.557 57.7009L129.254 57.2395L128.972 56.8294L128.87 56.6756C128.362 55.9529 128.163 55.0584 128.315 54.1888C128.468 53.3191 128.959 52.5457 129.682 52.0385C130.405 51.5313 131.299 51.332 132.169 51.4844C133.039 51.6368 133.812 52.1284 134.319 52.8511Z" fill="#263238"/>
<path d="M127.542 79.1972L126.44 81.0018L131.223 80.8121C131.223 80.8121 132.479 77.5925 130.767 77.085L130.1 77.2644C129.034 77.5629 128.12 78.2533 127.542 79.1972Z" fill="#FF8B7B"/>
<path d="M129.511 76.6697C129.166 76.9027 128.87 77.2004 128.639 77.5464C129.941 78.2538 131.756 80.6634 131.756 80.6634L132.176 79.3407C132.23 79.1701 132.245 78.9898 132.221 78.8126C132.197 78.6355 132.135 78.4657 132.038 78.3154L131.243 77.0337C131.156 76.8926 131.042 76.7707 130.906 76.6754C130.771 76.5801 130.617 76.5134 130.455 76.4793C130.293 76.4453 130.126 76.4446 129.963 76.4773C129.801 76.51 129.647 76.5755 129.511 76.6697Z" fill="#F48221"/>
<path d="M126.86 83.7804L130.802 83.4318L131.223 80.812L126.44 81.0017L126.86 83.7804Z" fill="#FF8B7B"/>
<path d="M78.4691 21.1938L78.2076 20.7529C78.9594 20.3074 79.7424 19.9167 80.5505 19.584L80.7454 20.0608C79.9596 20.3815 79.1987 20.7602 78.4691 21.1938Z" fill="#F48221"/>
<path d="M70.9841 30.2475L70.4715 30.0732C71.6868 26.7081 73.8856 23.7859 76.7824 21.686L77.0849 22.1012C74.2795 24.1425 72.1536 26.9811 70.9841 30.2475Z" fill="#F48221"/>
<path d="M87.2562 51.8668C95.9713 51.8668 103.036 44.8019 103.036 36.0868C103.036 27.3718 95.9713 20.3069 87.2562 20.3069C78.5412 20.3069 71.4763 27.3718 71.4763 36.0868C71.4763 44.8019 78.5412 51.8668 87.2562 51.8668Z" fill="#F48221"/>
<path opacity="0.6" d="M100.437 36.0869C100.436 39.1619 99.3598 42.1399 97.3948 44.5052C95.4298 46.8705 92.6996 48.4744 89.6768 49.0391C86.6541 49.6038 83.529 49.0939 80.8425 47.5976C78.1561 46.1013 76.0773 43.7128 74.9661 40.8455C73.855 37.9782 73.7813 34.8127 74.7578 31.8968C75.7343 28.9809 77.6997 26.4982 80.3136 24.8785C82.9275 23.2588 86.0254 22.6039 89.0712 23.0274C92.117 23.4508 94.9189 24.9259 96.9918 27.1972C96.9958 27.1953 97.0002 27.1944 97.0046 27.1944C97.009 27.1944 97.0134 27.1953 97.0174 27.1972C99.2277 29.6293 100.448 32.8005 100.437 36.0869Z" fill="white"/>
<path d="M100.437 36.0868C100.437 38.6489 99.6903 41.1555 98.2881 43.2999C96.886 45.4442 94.8893 47.1335 92.5422 48.161C90.1952 49.1885 87.5996 49.5096 85.0729 49.0852C82.5462 48.6607 80.1979 47.5091 78.3154 45.7711C76.0137 43.263 74.7717 39.9617 74.8494 36.5584C74.9271 33.1551 76.3185 29.9139 78.7322 27.5134C81.1459 25.113 84.3948 23.7394 87.7984 23.6805C91.2021 23.6215 94.4965 24.8817 96.992 27.1971C96.996 27.1953 97.0003 27.1943 97.0048 27.1943C97.0092 27.1943 97.0136 27.1953 97.0176 27.1971C99.2278 29.6292 100.448 32.8005 100.437 36.0868Z" fill="white"/>
<path d="M87.2562 36.8559C87.1552 36.8561 87.0552 36.8362 86.9619 36.7975C86.8687 36.7588 86.784 36.702 86.7128 36.6303L80.2839 30.2014C80.2084 30.131 80.1478 30.0461 80.1058 29.9518C80.0637 29.8575 80.0411 29.7556 80.0393 29.6524C80.0375 29.5491 80.0565 29.4466 80.0952 29.3508C80.1338 29.2551 80.1914 29.1681 80.2644 29.095C80.3374 29.022 80.4244 28.9645 80.5202 28.9258C80.6159 28.8871 80.7185 28.8681 80.8218 28.8699C80.925 28.8718 81.0268 28.8944 81.1212 28.9364C81.2155 28.9784 81.3004 29.039 81.3708 29.1146L87.2562 35L90.6552 31.601C90.801 31.4652 90.9938 31.3912 91.193 31.3947C91.3923 31.3983 91.5824 31.479 91.7232 31.6199C91.8641 31.7608 91.9449 31.9508 91.9484 32.1501C91.9519 32.3493 91.8779 32.5421 91.7421 32.6879L87.7997 36.6303C87.6553 36.7741 87.46 36.8551 87.2562 36.8559Z" fill="#263238"/>
</svg>
